<svg width="467" height="407" viewBox="0 0 467 407" fill="none" xmlns="http://www.w3.org/2000/svg">
<g filter="url(#filter0_d)">
<g filter="url(#filter1_d)">
<path fill-rule="evenodd" clip-rule="evenodd" d="M160 237H307V239.452H311V242.516H315V273.484H311V276.548H307V279H160V276.548H156V273.484H152V242.516H156V239.452H160V237Z" fill="white"/>
</g>
<path d="M182.06 258.28H178.676V259.96H180.356V261.688H182.06V263.44H176.972V261.808H175.268V260.032H173.588V263.44H170.108V251.488H180.356V253.12H182.06V258.28ZM178.628 256.576V253.192H173.54V258.28H176.996V256.576H178.628ZM197.871 263.344H185.775V251.272H197.871V252.952H189.255V256.384H194.415V258.16H189.255V261.592H197.871V263.344ZM213.25 263.44H209.866V260.032H204.778V263.44H201.298V254.896H202.93V253.192H204.658V251.488H209.818V253.12H211.546V254.824H213.25V263.44ZM209.818 258.28V254.824H208.114V253.192H206.362V254.92H204.73V258.28H209.818ZM228.846 260.008H227.214V261.712H225.51V263.44H216.894V251.488H225.414V253.12H227.142V254.824H228.846V260.008ZM225.414 260.008V254.824H223.71V253.192H220.326V261.712H223.782V260.008H225.414ZM249.911 263.44H246.527V258.328H244.847V260.008H243.119V258.328H241.439V263.44H237.959V251.488H241.343V253.12H243.071V254.872H244.727V253.192H246.455V251.488H249.911V263.44ZM265.506 261.712H263.874V263.44H255.282V261.808H253.554V253.192H255.186V251.488H263.802V253.12H265.506V261.712ZM262.074 261.712V253.192H256.986V261.712H262.074ZM281.102 258.28H277.718V259.96H279.398V261.688H281.102V263.44H276.014V261.808H274.31V260.032H272.63V263.44H269.15V251.488H279.398V253.12H281.102V258.28ZM277.67 256.576V253.192H272.582V258.28H276.038V256.576H277.67ZM296.913 263.344H284.817V251.272H296.913V252.952H288.297V256.384H293.457V258.16H288.297V261.592H296.913V263.344Z" fill="#170B00"/>
<rect x="50" y="10" width="367" height="306" rx="40" fill="#001228"/>
<path fill-rule="evenodd" clip-rule="evenodd" d="M401 10H66V18H58V26H50V300H58V309H66V317H401V309H409V301H417V26H409V18H401V10ZM74 309H393V293H409V34H393V18H74V34H58V293H74V309Z" fill="#001228"/>
</g>
<defs>
<filter id="filter0_d" x="0" y="0" width="467" height="407" filterUnits="userSpaceOnUse" color-interpolation-filters="sRGB">
<feFlood flood-opacity="0" result="BackgroundImageFix"/>
<feColorMatrix in="SourceAlpha" type="matrix" values="0 0 0 0 0 0 0 0 0 0 0 0 0 0 0 0 0 0 127 0"/>
<feOffset dy="40"/>
<feGaussianBlur stdDeviation="25"/>
<feColorMatrix type="matrix" values="0 0 0 0 0 0 0 0 0 0.122625 0 0 0 0 0.200781 0 0 0 0.12 0"/>
<feBlend mode="normal" in2="BackgroundImageFix" result="effect1_dropShadow"/>
<feBlend mode="normal" in="SourceGraphic" in2="effect1_dropShadow" result="shape"/>
</filter>
<filter id="filter1_d" x="152" y="237" width="163" height="46" filterUnits="userSpaceOnUse" color-interpolation-filters="sRGB">
<feFlood flood-opacity="0" result="BackgroundImageFix"/>
<feColorMatrix in="SourceAlpha" type="matrix" values="0 0 0 0 0 0 0 0 0 0 0 0 0 0 0 0 0 0 127 0"/>
<feOffset dy="4"/>
<feColorMatrix type="matrix" values="0 0 0 0 0.445833 0 0 0 0 0.438403 0 0 0 0 0.438403 0 0 0 1 0"/>
<feBlend mode="normal" in2="BackgroundImageFix" result="effect1_dropShadow"/>
<feBlend mode="normal" in="SourceGraphic" in2="effect1_dropShadow" result="shape"/>
</filter>
</defs>
</svg>
