<svg width="164" height="88" viewBox="0 0 164 88" fill="none" xmlns="http://www.w3.org/2000/svg">
<path d="M142.133 43.7332H142.126C141.723 43.7332 141.376 43.4623 141.263 43.0754C138.615 33.9797 130.217 27.3331 120.266 27.3331C116.546 27.3331 113.044 28.2653 109.978 29.9053C108.776 30.5481 107.284 30.2123 106.52 29.0837C103.572 24.729 98.5878 21.8664 92.9332 21.8664C91.6108 21.8664 90.3252 22.0238 89.0938 22.32C87.7594 22.6409 86.3821 21.924 85.9513 20.6211C81.991 8.64336 70.7055 0 57.3999 0C40.7946 0 27.3333 13.4614 27.3333 30.0666C27.3333 30.4438 27.343 30.8183 27.3586 31.1913C27.3742 31.5607 27.2529 31.9229 27.0257 32.2142L27.0022 32.2444C26.7174 32.6093 26.2863 32.8248 25.8239 32.8499C11.2752 33.6426 -0.247618 45.8043 0.00404494 60.6086C0.258309 75.5744 12.7085 87.4663 27.6766 87.4663H141.807C153.825 87.4663 163.842 77.9067 163.998 65.8899C164.156 53.6804 154.306 43.7332 142.133 43.7332Z" fill="#ECF4FF"/>
<path d="M142.133 43.7332H142.126C141.723 43.7332 141.376 43.4623 141.263 43.0754C138.615 33.9797 130.217 27.3331 120.266 27.3331C116.546 27.3331 113.044 28.2653 109.978 29.9053C108.776 30.5481 107.284 30.2123 106.52 29.0837C103.572 24.729 98.5878 21.8664 92.9332 21.8664C91.6108 21.8664 90.3252 22.0238 89.0938 22.32C87.7594 22.6409 86.3821 21.924 85.9513 20.6211C81.991 8.64336 70.7055 0 57.3999 0C40.7946 0 27.3333 13.4614 27.3333 30.0666C27.3333 30.4438 27.343 30.8183 27.3586 31.1913C27.3742 31.5607 27.2529 31.9229 27.0257 32.2142L27.0022 32.2444C26.7174 32.6093 26.2863 32.8248 25.8239 32.8499C11.2752 33.6426 -0.247618 45.8043 0.00404494 60.6086C0.258309 75.5744 12.7085 87.4663 27.6766 87.4663H141.807C153.825 87.4663 163.842 77.9067 163.998 65.8899C164.156 53.6804 154.306 43.7332 142.133 43.7332Z" fill="#ECF4FF"/>
<path d="M142.133 43.7331H142.126C141.723 43.7331 141.376 43.4622 141.263 43.0753C138.615 33.9796 130.217 27.333 120.266 27.333C118.973 27.333 117.706 27.4481 116.474 27.6643C124.716 29.1077 131.37 35.1638 133.674 43.0756C133.786 43.4622 134.133 43.7334 134.536 43.7334H134.543C146.716 43.7334 156.566 53.6806 156.408 65.8905C156.252 77.9072 146.235 87.4669 134.217 87.4669H141.807C153.824 87.4669 163.841 77.9072 163.997 65.8905C164.156 53.6803 154.306 43.7331 142.133 43.7331Z" fill="#DAEAFF"/>
<path d="M52.1917 60.1336C52.1917 61.5005 53.2998 62.6086 54.6663 62.6086C56.0333 62.6086 57.141 61.5008 57.141 60.1336C57.141 43.2091 44.011 29.2941 27.4025 28.0391C27.358 28.7095 27.3329 29.3852 27.3329 30.0667C27.3329 30.4438 27.3427 30.8184 27.3583 31.1914C27.3739 31.5607 27.2526 31.9229 27.0253 32.2143L27.0019 32.2445C26.7171 32.6093 26.2859 32.8249 25.8236 32.8499C25.6041 32.862 25.3879 32.8847 25.1697 32.9016C40.0891 33.0187 52.1917 45.1873 52.1917 60.1336Z" fill="#DDEAFB"/>
<path d="M88.821 22.3704C87.5764 22.5398 86.3525 21.8356 85.951 20.6211C85.7026 19.8697 85.4249 19.1313 85.1202 18.4072C75.98 21.6359 69.4108 30.3583 69.4108 40.59C69.4108 41.9569 70.5189 43.0647 71.8855 43.0647C73.2524 43.0647 74.3605 41.9569 74.3605 40.59C74.3605 31.7623 80.5529 24.282 88.8207 22.3838V22.3704H88.821Z" fill="#DDEAFB"/>
<path d="M122.741 66.837C122.741 65.4701 121.633 64.3623 120.266 64.3623C118.899 64.3623 117.791 65.4701 117.791 66.837C117.791 75.297 121.922 82.8072 128.27 87.4662H141.807C142.072 87.4662 142.335 87.4558 142.597 87.4467C131.58 87.038 122.741 77.9528 122.741 66.837Z" fill="#DDEAFB"/>
</svg>
