<svg width="109" height="59" viewBox="0 0 109 59" fill="none" xmlns="http://www.w3.org/2000/svg">
<path d="M14.5115 29.9775H14.5164C14.7838 29.9775 15.0138 29.7977 15.0887 29.5409C16.8462 23.5049 22.4194 19.094 29.0228 19.094C31.4919 19.094 33.8156 19.7126 35.8503 20.801C36.6478 21.2276 37.6378 21.0047 38.1449 20.2557C40.1013 17.3658 43.4091 15.4662 47.1617 15.4662C48.0392 15.4662 48.8924 15.5706 49.7095 15.7672C50.5951 15.9801 51.5091 15.5043 51.795 14.6397C54.4231 6.69102 61.9125 0.955078 70.7424 0.955078C81.7621 0.955078 90.6953 9.88838 90.6953 20.908C90.6953 21.1583 90.6889 21.4069 90.6785 21.6544C90.6682 21.8995 90.7486 22.1399 90.8995 22.3332L90.915 22.3533C91.104 22.5954 91.3901 22.7384 91.697 22.755C101.352 23.2811 108.999 31.3519 108.832 41.1764C108.663 51.1081 100.401 58.9998 90.4675 58.9998H14.7277C6.75242 58.9998 0.10482 52.6558 0.00125122 44.6812C-0.103828 36.5787 6.43286 29.9775 14.5115 29.9775Z" fill="#ECF4FF"/>
<path d="M14.5115 29.9775H14.5164C14.7838 29.9775 15.0138 29.7977 15.0887 29.5409C16.8462 23.5049 22.4194 19.094 29.0228 19.094C31.4919 19.094 33.8156 19.7126 35.8503 20.801C36.6478 21.2276 37.6378 21.0047 38.1449 20.2557C40.1013 17.3658 43.4091 15.4662 47.1617 15.4662C48.0392 15.4662 48.8924 15.5706 49.7095 15.7672C50.5951 15.9801 51.5091 15.5043 51.795 14.6397C54.4231 6.69102 61.9125 0.955078 70.7424 0.955078C81.7621 0.955078 90.6953 9.88838 90.6953 20.908C90.6953 21.1583 90.6889 21.4069 90.6785 21.6544C90.6682 21.8995 90.7486 22.1399 90.8995 22.3332L90.915 22.3533C91.104 22.5954 91.3901 22.7384 91.697 22.755C101.352 23.2811 108.999 31.3519 108.832 41.1764C108.663 51.1081 100.401 58.9998 90.4675 58.9998H14.7277C6.75242 58.9998 0.10482 52.6558 0.00125122 44.6812C-0.103828 36.5787 6.43286 29.9775 14.5115 29.9775Z" fill="#ECF4FF"/>
<path d="M14.5114 29.9772H14.5164C14.7837 29.9772 15.0138 29.7975 15.0886 29.5407C16.8461 23.5046 22.4194 19.0938 29.0227 19.0938C29.8813 19.0938 30.7217 19.1701 31.5393 19.3136C26.0701 20.2714 21.654 24.2905 20.1252 29.5409C20.0506 29.7975 19.8204 29.9774 19.5532 29.9774H19.5483C11.4699 29.9774 4.93318 36.5786 5.03826 44.6814C5.14162 52.656 11.7894 59 19.7647 59H14.7281C6.75281 59 0.105213 52.656 0.00164032 44.6814C-0.103872 36.5784 6.43282 29.9772 14.5114 29.9772Z" fill="#DAEAFF"/>
<path d="M74.1987 40.8612C74.1987 41.7683 73.4633 42.5037 72.5564 42.5037C71.6493 42.5037 70.9142 41.7685 70.9142 40.8612C70.9142 29.6297 79.6276 20.3954 90.6494 19.5625C90.6789 20.0074 90.6956 20.4558 90.6956 20.9081C90.6956 21.1584 90.6891 21.4069 90.6787 21.6544C90.6684 21.8996 90.7488 22.1399 90.8997 22.3333L90.9152 22.3533C91.1042 22.5954 91.3903 22.7385 91.6972 22.7551C91.8428 22.7631 91.9863 22.7782 92.1311 22.7894C82.2303 22.8671 74.1987 30.9425 74.1987 40.8612Z" fill="#DDEAFB"/>
<path d="M49.8905 15.8C50.7165 15.9124 51.5287 15.4451 51.7951 14.6391C51.96 14.1405 52.1443 13.6505 52.3464 13.1699C58.4121 15.3126 62.7716 21.1009 62.7716 27.891C62.7716 28.7981 62.0362 29.5332 61.1293 29.5332C60.2222 29.5332 59.4869 28.7981 59.4869 27.891C59.4869 22.0327 55.3774 17.0685 49.8907 15.8089V15.8H49.8905Z" fill="#DDEAFB"/>
<path d="M27.3802 45.3093C27.3802 44.4021 28.1156 43.667 29.0227 43.667C29.9298 43.667 30.6652 44.4021 30.6652 45.3093C30.6652 50.9235 27.9237 55.9075 23.7109 58.9993H14.7278C14.552 58.9993 14.3776 58.9924 14.2033 58.9864C21.5146 58.7151 27.3802 52.686 27.3802 45.3093Z" fill="#DDEAFB"/>
</svg>
