<svg width="111" height="64" viewBox="0 0 111 64" fill="none" xmlns="http://www.w3.org/2000/svg">
<path d="M19.6883 63.2002C8.33892 63.2002 -0.767758 53.4625 0.0512359 41.9501C0.723629 32.4999 8.20923 24.77 17.634 23.8053C18.9605 23.6695 20.263 23.6672 21.5302 23.7856C23.2603 23.9472 24.8555 22.8543 25.4222 21.2116C29.6783 8.86891 41.3881 0 55.1766 0C65.5219 0 74.6967 4.99337 80.4334 12.6993C81.8962 14.6639 84.1779 15.8165 86.6269 15.8005C86.6767 15.8001 86.7265 15.8001 86.7768 15.8001C100 15.8001 110.695 26.6302 110.474 39.9052C110.256 52.9001 99.3835 63.2002 86.3867 63.2002H19.6883Z" fill="#DAEAFF"/>
<path d="M86.7768 15.8001C86.727 15.8001 86.6772 15.8001 86.6269 15.8005C84.1779 15.8165 81.8957 14.6639 80.4334 12.6993C74.6972 4.99337 65.5219 0 55.1766 0C53.3084 0 51.4806 0.168216 49.7021 0.480213C57.7647 1.90065 64.7687 6.38938 69.4656 12.6989C70.9283 14.6634 73.21 15.816 75.659 15.8001C75.7088 15.7996 75.7586 15.7996 75.8089 15.7996C89.0326 15.7996 99.727 26.6298 99.5057 39.9047C99.2886 52.8996 88.4157 63.1998 75.4189 63.1998H86.3868C99.3835 63.1998 110.256 52.8996 110.474 39.9047C110.695 26.6302 100 15.8001 86.7768 15.8001Z" fill="#BED8FB"/>
<path d="M90.4127 16.077C89.2272 15.8947 88.013 15.7998 86.7768 15.7998C86.727 15.7998 86.6772 15.7998 86.6269 15.8002C84.1779 15.8162 81.8957 14.6636 80.4334 12.699C80.0026 12.1202 79.5501 11.5587 79.0811 11.0117C67.6726 15.4488 59.562 26.5416 59.562 39.4998C59.562 41.4752 61.1633 43.0765 63.1387 43.0765C65.1141 43.0765 66.7154 41.4752 66.7154 39.4998C66.7154 26.5928 77.2162 16.092 90.1232 16.092C90.221 16.092 90.3168 16.085 90.4127 16.077Z" fill="#CBE0FC"/>
</svg>
