<svg width="96" height="76" viewBox="0 0 96 76" fill="none" xmlns="http://www.w3.org/2000/svg">
<path d="M109.059 75.5863C122.633 75.5863 133.524 63.9402 132.545 50.1715C131.741 38.8693 122.788 29.6245 111.516 28.4707C109.93 28.3083 108.372 28.3055 106.856 28.4471C104.787 28.6405 102.879 27.3333 102.201 25.3687C97.1112 10.6071 83.1065 0 66.6157 0C54.243 0 43.2701 5.97198 36.409 15.1882C34.6597 17.5378 31.9308 18.9162 29.0018 18.8971C28.9422 18.8966 28.8827 18.8966 28.8225 18.8966C13.0072 18.8966 0.216919 31.8493 0.481598 47.7259C0.741226 63.2675 13.7451 75.5863 29.289 75.5863H109.059Z" fill="#DAEAFF"/>
<path d="M28.8225 18.8966C28.8821 18.8966 28.9416 18.8966 29.0018 18.8971C31.9307 18.9162 34.6602 17.5378 36.409 15.1882C43.2694 5.97198 54.2429 0 66.6157 0C68.85 0 71.0361 0.201183 73.1631 0.574327C63.5204 2.27314 55.1437 7.64158 49.5263 15.1876C47.777 17.5372 45.0481 18.9157 42.1191 18.8966C42.0595 18.896 42 18.896 41.9398 18.896C26.1245 18.896 13.3342 31.8487 13.5989 47.7253C13.8585 63.267 26.8624 75.5858 42.4063 75.5858H29.2889C13.745 75.5858 0.741173 63.267 0.481544 47.7253C0.216866 31.8493 13.0072 18.8966 28.8225 18.8966Z" fill="#BED8FB"/>
<path d="M24.474 19.2279C25.8918 19.0098 27.344 18.8963 28.8225 18.8963C28.8821 18.8963 28.9416 18.8963 29.0018 18.8969C31.9307 18.916 34.6602 17.5375 36.409 15.1879C36.9243 14.4956 37.4655 13.824 38.0263 13.1699C51.6708 18.4765 61.3708 31.7434 61.3708 47.2412C61.3708 49.6037 59.4557 51.5189 57.0932 51.5189C54.7307 51.5189 52.8155 49.6037 52.8155 47.2412C52.8155 31.8046 40.2568 19.2459 24.8202 19.2459C24.7033 19.2459 24.5887 19.2374 24.474 19.2279Z" fill="#CBE0FC"/>
</svg>
