<svg width="48" height="48" viewBox="0 0 48 48" fill="none" xmlns="http://www.w3.org/2000/svg">
<circle cx="24" cy="24" r="24" fill="#6E8C7D"/>
<path d="M36.6385 9.18268C36.3692 8.96568 35.9971 8.90949 35.6716 9.03737L6.60869 20.6625C6.25025 20.8059 6.00999 21.1489 6.00031 21.5364C5.99062 21.9239 6.2115 22.2784 6.56413 22.4412L15.688 26.6534L36.032 9.93638L19.563 28.4417V38.0306L26.4374 31.6154L31.7501 34.0664C31.8799 34.1245 32.0194 34.1555 32.157 34.1555C32.312 34.1555 32.4689 34.1168 32.6084 34.0431C32.8777 33.9017 33.0618 33.644 33.1122 33.3456L36.9872 10.0953C37.0434 9.75231 36.9117 9.40162 36.6385 9.18268Z" fill="#0D2F1E"/>
</svg>
