<svg width="43" height="29" viewBox="0 0 43 29" fill="none" xmlns="http://www.w3.org/2000/svg">
<path d="M34.5468 0.209042C34.403 0.348 34.2605 0.549792 34.2605 0.752792C34.2593 1.10321 34.677 1.57808 35.451 2.35867C38.6735 5.41092 40.2953 9.1495 40.2842 13.6566C40.2719 18.6446 38.5666 22.6502 35.252 25.7544C34.5554 26.3682 34.2691 26.8492 34.2679 27.2612C34.2679 27.4642 34.4092 27.6745 34.5517 27.8762C34.6856 28.0176 34.9706 28.1578 35.1758 28.1578C35.9424 28.1602 37.0162 27.2685 38.4167 25.5333C41.1454 22.2442 42.3789 18.612 42.4477 13.6626C42.5116 8.70967 40.9341 5.35171 37.843 1.88379C36.7312 0.64525 35.8048 0.00120833 35.1709 0C34.9657 0 34.7519 0.068875 34.5468 0.209042Z" fill="#0A0A23"/>
<path d="M24.8325 14.5528C23.6223 14.2483 28.5919 8.47365 19.7585 1.55957C19.7585 1.55957 20.9182 5.18095 15.0739 13.2623C9.22713 21.3412 17.6736 26.1528 17.6736 26.1528C17.6736 26.1528 13.7102 24.0757 18.3173 16.6794C19.1429 15.337 20.2216 14.1214 21.562 11.3869C21.562 11.3869 22.7476 13.0327 22.1284 16.6033C21.202 21.9985 26.1446 20.4543 26.222 20.5292C27.9481 22.529 24.7919 26.0428 24.6003 26.1528C24.4086 26.2603 33.6131 20.7068 27.0734 12.3488C26.625 12.7898 26.0438 14.8573 24.8325 14.5528Z" fill="#0A0A23"/>
<path d="M7.90406 0.212948C8.04658 0.351906 8.18908 0.553698 8.18908 0.756698C8.19031 1.10711 7.77259 1.58199 6.99859 2.36257C3.77604 5.41482 2.15555 9.15341 2.16538 13.6605C2.17767 18.6485 3.88294 22.6541 7.19763 25.7583C7.89423 26.3722 8.18048 26.8531 8.18171 27.2651C8.18171 27.4681 8.04043 27.6784 7.89791 27.8802C7.764 28.0215 7.4802 28.1617 7.2738 28.1617C6.50717 28.1641 5.4334 27.2724 4.03282 25.5372C1.30416 22.2481 0.070666 18.6159 0.00186588 13.6665C-0.06202 8.71357 1.51547 5.35561 4.60656 1.8877C5.71842 0.649156 6.64599 0.00511458 7.27871 0.00390625C7.48388 0.00390625 7.69766 0.0727813 7.90406 0.212948Z" fill="#0A0A23"/>
</svg>
