<svg width="208" height="29" viewBox="0 0 208 29" fill="none" xmlns="http://www.w3.org/2000/svg">
<g clip-path="url(#clip0)">
<path d="M43.5111 6.71579L44.048 6.77741L44.5578 6.87166L45.0406 6.98766L45.4977 7.12783L45.9301 7.29821L46.3306 7.48912L46.709 7.71025L47.0567 7.95796L47.3848 8.225L47.6833 8.52104L47.9548 8.83883L48.1993 9.18683L48.418 9.56141L48.6121 9.95412L48.7792 10.3807L48.9192 10.8217L49.0372 11.299L49.1281 11.792L49.1908 12.32L49.2288 12.865L49.2424 13.4414V13.5815L49.2374 13.7132L49.2239 13.8401L49.1858 14.083L49.16 14.1905L49.1281 14.2981L49.0949 14.3923L49.004 14.57L48.961 14.6461L48.9008 14.721L48.8431 14.7911L48.7792 14.8479L48.7079 14.9071L48.6379 14.9506L48.5605 14.9965L48.4757 15.0255L48.3848 15.0581L48.2951 15.0847L48.1993 15.0956L48.0949 15.1089H37.1692V15.0207H37.1446V17.2404L37.1495 17.5376L37.1827 17.8276L37.2269 18.1031L37.2982 18.3617L37.383 18.6094L37.4923 18.8438L37.6127 19.0601L37.7638 19.2667L37.9223 19.4589L38.1115 19.6413L38.3167 19.8057L38.5366 19.9591L38.7798 20.0993L39.0452 20.2262L39.3229 20.3397L39.6263 20.4425L39.947 20.5222L40.2898 20.6007L40.651 20.6575L41.0294 20.701L41.4286 20.7385L41.8488 20.7566L42.2862 20.7651H42.4484L42.6105 20.7566H42.7629L42.9201 20.7518L43.0676 20.747L43.215 20.7325L43.3636 20.7276L43.6487 20.701L43.7826 20.6902L43.9202 20.6684L44.177 20.631L44.2974 20.6116L44.4264 20.5875L44.7765 20.5125L44.892 20.4799L45.0013 20.4521L45.1058 20.4231L45.2077 20.3857L45.3109 20.353L45.3687 20.3337L45.4264 20.3071L45.4928 20.2878L45.5554 20.2588L45.6267 20.2322L45.6979 20.1996L45.7741 20.1621L45.8515 20.1295L46.1034 19.9978L46.2016 19.9458L46.2889 19.8951L46.4977 19.7815L46.5985 19.7199L46.709 19.6546L46.8184 19.5845L47.0506 19.4347L47.1747 19.3562L47.3037 19.2752L47.4314 19.1858L47.585 19.0456L47.741 18.92L47.8123 18.8632L47.8762 18.8112L47.9474 18.7605L48.0126 18.7097L48.128 18.6203L48.2423 18.5454L48.2951 18.5127L48.3467 18.4886L48.3934 18.456L48.4806 18.4185L48.5224 18.3992L48.5605 18.3859L48.5912 18.375L48.6563 18.3617H48.7608L48.8898 18.375L48.9524 18.3859L49.0102 18.3992L49.0704 18.4185L49.1195 18.4366L49.2104 18.4886L49.2559 18.5212L49.3333 18.5961L49.3664 18.6336L49.3984 18.6795L49.4488 18.7798L49.4672 18.8354L49.4807 18.9006L49.5004 18.9659L49.509 19.0275L49.52 19.0976V19.1725L49.5274 19.2559L49.52 19.332L49.5139 19.4154L49.5004 19.4963L49.4893 19.5712L49.4094 19.819L49.3714 19.8951L49.3333 19.9785L49.289 20.0618L49.2374 20.1428L49.1797 20.2262L49.1195 20.3023L48.9905 20.4666L48.8369 20.631L48.6698 20.7977L48.4757 20.962L48.3713 21.043L48.2706 21.1312L48.09 21.2581L47.9032 21.385L47.7091 21.5058L47.5088 21.6278L47.3037 21.7354L47.0838 21.8429L46.8589 21.9372L46.6267 22.0314L46.3884 22.1208L46.1365 22.2042L45.8785 22.2791L45.6132 22.3492L45.3441 22.4193L45.0652 22.4761L44.4866 22.5788L44.1831 22.6162L43.8735 22.6537L43.5578 22.6779L43.2297 22.7057L42.9005 22.719L42.5638 22.7298H42.2149L41.6178 22.7238L41.0429 22.6924L40.4949 22.6404L39.974 22.5655L39.4764 22.4761L39.0071 22.3637L38.5685 22.2284L38.1496 22.0725L37.7638 21.8997L37.4014 21.7027L37.0648 21.4877L36.7502 21.2472L36.4726 20.991L36.2158 20.7143L35.9824 20.4098L35.7834 20.092L35.6101 19.7489L35.4541 19.3888L35.3386 19.0033L35.2428 18.601L35.1715 18.178L35.1335 17.7285L35.1199 17.2597V11.566L35.1335 11.3993L35.1445 11.2482L35.1642 11.0887L35.1912 10.9305L35.2158 10.7794L35.2539 10.626L35.2919 10.4797L35.3448 10.3287L35.3964 10.1837L35.4541 10.0387L35.5192 9.89854L35.6593 9.61821L35.7441 9.48046L35.8288 9.34512L35.9197 9.21341L36.0156 9.08654L36.12 8.96087L36.2293 8.834L36.4591 8.59112L36.5832 8.47029L36.7502 8.31321L37.1115 8.01958L37.3031 7.88787L37.5034 7.761L37.711 7.64016L37.9309 7.52658L38.1496 7.41904L38.3806 7.32479L38.6189 7.22812L38.8646 7.14716L39.1165 7.06862L39.3794 6.99371L39.646 6.93087L39.9224 6.87166L40.1988 6.82333L40.49 6.78587L40.7849 6.746L41.081 6.71579L41.3906 6.69646L41.7088 6.67833L42.0294 6.66987L42.3574 6.66504L42.9447 6.67833L43.5111 6.71579ZM41.0048 8.65637L40.5084 8.73612L40.0244 8.85816L39.5551 9.00921L39.1091 9.19529L38.6791 9.41037L38.2835 9.71487L37.9493 10.0302L37.6655 10.3722L37.4407 10.7275L37.2785 11.102L37.1741 11.496L37.1446 11.908V13.0752H47.1992L47.0899 11.8899L46.7803 10.8821L46.2594 10.0568L45.5222 9.41521L44.5824 8.95241L43.4214 8.68054L42.0564 8.58629L41.5196 8.60441L41.0048 8.65637Z" fill="#0A0A23"/>
<path d="M17.4568 7.94414C17.4568 7.25901 17.877 6.98714 18.7148 6.98714C19.1203 6.98714 22.3748 6.98714 22.7888 6.98714C23.4842 6.98714 23.8318 7.60218 23.8318 8.72593C25.0899 7.41851 26.4352 6.63672 27.8345 6.63672C29.0213 6.63672 29.9501 6.98714 30.5804 7.67226C31.2782 8.35618 31.5608 9.33976 31.5608 10.4418C31.5608 11.1958 31.207 11.609 30.5804 11.609C30.1614 11.609 29.8838 11.3311 29.745 10.8538C29.4648 9.88955 29.326 9.40984 29.2548 9.33976C28.9771 8.86247 28.4156 8.58576 27.7203 8.58576C26.9524 8.58576 26.1858 8.86247 25.5334 9.40984C25.1145 9.68776 24.553 10.3016 23.8318 11.2151C23.8318 11.8374 23.8318 14.9259 23.8318 20.4842C26.1059 20.4842 27.3726 20.4842 27.6208 20.4842C28.4599 20.4842 28.8788 20.8346 28.8788 21.4497C28.8788 22.1336 28.4599 22.4816 27.6208 22.4816C26.7251 22.4816 19.5196 22.4816 18.6166 22.4816C17.7799 22.4816 17.361 22.1336 17.361 21.5198C17.361 20.8346 17.7799 20.5543 18.6166 20.5543C18.8242 20.5543 19.855 20.5543 21.7113 20.5543C21.7113 20.5495 21.7113 20.5193 21.7113 20.4661C21.7138 20.4661 21.7212 20.4661 21.7371 20.4661C21.7371 13.5315 21.7371 9.6793 21.7371 8.90839C19.855 8.90839 18.8463 8.90839 18.7148 8.90839C17.877 8.90839 17.4568 8.56643 17.4568 7.94414Z" fill="#0A0A23"/>
<path d="M1.1868 7.00787C1.34283 7.00787 2.08734 7.00787 3.44983 7.00787C3.44983 5.84062 3.44983 5.19416 3.44983 5.06245C3.44983 1.67549 5.21651 0.00195312 8.65774 0.00195312C10.0571 0.00195312 11.2685 0.27987 12.169 0.761995C13.3558 1.44591 14.0131 2.56966 14.0131 3.87708C14.0131 4.76279 13.6605 5.11079 13.0351 5.11079C12.6162 5.11079 12.1973 4.83287 11.9835 4.35074C11.7071 3.46383 11.4294 2.9817 11.2869 2.75333C10.8679 2.2712 10.0301 1.99812 8.81869 1.99812C6.70431 1.99812 5.66003 3.0252 5.66003 5.11079C5.66003 5.23162 5.66003 5.85995 5.66003 6.98854C8.10366 6.98854 9.45754 6.98854 9.72906 6.98854C10.6357 6.98854 11.0547 7.33049 11.0547 7.94554C11.0547 8.62945 10.6357 8.90979 9.72906 8.90979C9.45754 8.90979 8.10366 8.90979 5.66003 8.90979C5.66003 16.5066 5.66003 20.72 5.66003 21.5635C5.66003 22.3187 5.3062 22.7307 4.67963 22.7307C3.98303 22.7307 3.70169 22.3187 3.70169 21.5635C3.70169 20.72 3.70169 16.5283 3.70169 8.93154C3.698 8.93154 1.31089 8.92912 1.1868 8.92912C0.418943 8.92912 0 8.58716 0 7.97212C0 7.27974 0.418943 7.00787 1.1868 7.00787Z" fill="#0A0A23"/>
<path d="M61.1742 6.71579L61.7111 6.77741L62.221 6.87166L62.7026 6.98766L63.1608 7.12783L63.5933 7.29821L63.9926 7.48912L64.371 7.71025L64.7187 7.95796L65.0479 8.225L65.3465 8.52104L65.618 8.83883L65.8613 9.18683L66.0812 9.56141L66.2753 9.95412L66.4424 10.3807L66.5824 10.8217L66.7004 11.299L66.7901 11.792L66.8539 12.32L66.892 12.865L66.9055 13.4414V13.5815L66.8994 13.7132L66.8859 13.8401L66.8478 14.083L66.8232 14.1905L66.7901 14.2981L66.7569 14.3923L66.6672 14.57L66.623 14.6461L66.5628 14.721L66.505 14.7911L66.4424 14.8479L66.3711 14.9071L66.2999 14.9506L66.2237 14.9965L66.1389 15.0255L66.048 15.0581L65.9571 15.0847L65.8613 15.0956L65.758 15.1089H54.8311V15.0207H54.8066V17.2404L54.8176 17.5376L54.8459 17.8276L54.8975 18.1031L54.9601 18.3617L55.0449 18.6094L55.1555 18.8438L55.2759 19.0601L55.4258 19.2667L55.5928 19.4589L55.7747 19.6413L55.9798 19.8057L56.1985 19.9591L56.443 20.0993L56.7084 20.2262L56.9848 20.3397L57.2895 20.4425L57.6102 20.5222L57.9517 20.6007L58.3141 20.6575L58.6913 20.701L59.0918 20.7385L59.5108 20.7566L59.9494 20.7651H60.1115L60.2725 20.7566H60.426L60.5821 20.7518L60.7307 20.747L60.8782 20.7325L61.0256 20.7276L61.3106 20.701L61.4458 20.6902L61.5821 20.6684L61.9691 20.6116L62.0895 20.5875L62.2075 20.5609L62.3303 20.5367L62.4397 20.5125L62.5552 20.4799L62.6645 20.4521L62.7689 20.4231L62.8697 20.3857L62.9741 20.353L63.0318 20.3337L63.0896 20.3071L63.1547 20.2878L63.2174 20.2588L63.2886 20.2322L63.3599 20.1996L63.4373 20.1621L63.5134 20.1295L63.683 20.0437L63.7739 19.9978L63.8648 19.9458L63.9606 19.8951L64.0565 19.8383L64.1597 19.7815L64.2616 19.7199L64.371 19.6546L64.4803 19.5845L64.7138 19.4347L64.8366 19.3562L64.9656 19.2752L65.0946 19.1858L65.2482 19.0456L65.4042 18.92L65.4755 18.8632L65.5381 18.8112L65.6094 18.7605L65.6757 18.7097L65.79 18.6203L65.9055 18.5454L65.9571 18.5127L66.0099 18.4886L66.0566 18.456L66.1438 18.4185L66.1844 18.3992L66.2237 18.3859L66.2532 18.375L66.3195 18.3617H66.4227L66.5517 18.375L66.6156 18.3859L66.6721 18.3992L66.7323 18.4185L66.7827 18.4366L66.8724 18.4886L66.9191 18.5212L66.9952 18.5961L67.0284 18.6336L67.0616 18.6795L67.1107 18.7798L67.1304 18.8354L67.1439 18.9006L67.1635 18.9659L67.1709 19.0275L67.182 19.0976V19.1725L67.1906 19.2559L67.182 19.332L67.1771 19.4154L67.1635 19.4963L67.1525 19.5712L67.0726 19.819L67.0345 19.8951L66.9952 19.9785L66.9522 20.0618L66.8478 20.2262L66.7827 20.3023L66.6537 20.4666L66.5001 20.631L66.333 20.7977L66.1389 20.962L66.0345 21.043L65.9325 21.1312L65.7519 21.2581L65.5652 21.385L65.3711 21.5058L65.1708 21.6278L64.9656 21.7354L64.7469 21.8429L64.5221 21.9372L64.2887 22.0314L64.0503 22.1208L63.7985 22.2042L63.5417 22.2791L63.2751 22.3492L63.0073 22.4193L62.7272 22.4761L62.1497 22.5788L61.845 22.6162L61.5354 22.6537L61.2209 22.6779L60.8978 22.7057L60.2258 22.7298H59.8781L59.281 22.7238L58.706 22.6924L58.1581 22.6404L57.6372 22.5655L57.1384 22.4761L56.6752 22.3637L56.2317 22.2284L55.8128 22.0725L55.4258 21.8997L55.0646 21.7027L54.7279 21.4877L54.4183 21.2472L54.1358 20.991L53.8777 20.7143L53.6455 20.4098L53.4453 20.092L53.2733 19.7489L53.1246 19.3888L53.0018 19.0033L52.9059 18.601L52.8347 18.178L52.7966 17.7285L52.7819 17.2597V11.566L52.7966 11.3993L52.8077 11.2482L52.8261 11.0887L52.8531 10.9305L52.8777 10.7794L52.917 10.626L52.9551 10.4797L53.0067 10.3287L53.0595 10.1837L53.1173 10.0387L53.1824 9.89854L53.3224 9.61821L53.4072 9.48046L53.492 9.34512L53.5829 9.21341L53.6787 9.08654L53.7819 8.96087L53.8925 8.834L54.1222 8.59112L54.2451 8.47029L54.4122 8.31321L54.7746 8.01958L54.9663 7.88787L55.1665 7.761L55.3742 7.64016L55.5928 7.52658L55.8128 7.41904L56.0425 7.32479L56.2808 7.22812L56.5278 7.14716L56.7796 7.06862L57.0426 6.99371L57.3079 6.93087L57.5856 6.87166L57.862 6.82333L58.152 6.78587L58.448 6.746L58.7441 6.71579L59.0537 6.69646L59.3719 6.67833L59.6914 6.66987L60.0206 6.66504L60.6066 6.67833L61.1742 6.71579ZM58.6667 8.65637L58.1716 8.73612L57.6863 8.85816L57.2182 9.00921L56.771 9.19529L56.341 9.41037L55.927 9.71487L55.5793 10.0302L55.2943 10.3722L55.0842 10.7275L54.9282 11.102L54.8373 11.496L54.8066 11.908V13.0752H64.8612L64.7518 11.8899L64.4423 10.8821L63.9213 10.0568L63.1854 9.41521L62.2456 8.95241L61.0833 8.68054L59.7196 8.58629L59.1827 8.60441L58.6667 8.65637Z" fill="#0A0A23"/>
<path d="M195.084 6.56212L195.122 6.57058L195.199 6.59474L195.237 6.61287L195.27 6.6322L195.308 6.65033L195.347 6.67812L195.38 6.70229L195.418 6.73491L195.451 6.76391L195.489 6.79654L195.552 6.87145L195.618 6.96087L195.651 7.01162L195.681 7.05754L195.708 7.11433L195.741 7.16508L195.747 7.21704L195.772 7.31612L195.79 7.37291L195.804 7.42366L195.823 7.47562L195.837 7.52637L195.856 7.57833L195.875 7.63391L195.933 7.78495L195.952 7.84174L195.99 7.94445L196.004 7.9952L196.024 8.04716L196.048 8.14624L196.07 8.19216L196.075 8.24291L196.089 8.28641L196.398 8.14141L197.004 7.86349L197.294 7.7342L197.583 7.61579L197.861 7.49979L198.138 7.39224L198.409 7.29195L198.672 7.20374L198.93 7.11433L199.182 7.03941L199.425 6.96087L199.672 6.89924L200.136 6.78566L200.363 6.73974L200.574 6.70229L200.788 6.66966L200.993 6.65033L201.193 6.6322L201.394 6.61891H201.579L202.154 6.6322L202.695 6.66483L203.212 6.72041L203.7 6.79654L204.165 6.89924L204.604 7.02008L205.009 7.16508L205.395 7.32941L205.751 7.51308L206.081 7.72333L206.382 7.95774L206.658 8.20545L206.911 8.47733L207.136 8.77458L207.335 9.09237L207.506 9.42949L207.653 9.78233L207.769 10.1642L207.858 10.5629L207.93 10.981L207.968 11.4208L207.982 11.8812V17.6256L207.974 17.8552L207.963 18.0703L207.943 18.2866L207.916 18.4932L207.883 18.7035L207.84 18.9004L207.787 19.0974L207.729 19.2883L207.664 19.472L207.595 19.6496L207.516 19.8272L207.426 19.9976L207.33 20.1692L207.226 20.3335L207.116 20.493L207.001 20.644L206.878 20.7975L206.744 20.9425L206.602 21.0887L206.459 21.2289L206.305 21.3606L206.143 21.4923L205.996 21.6083L205.847 21.7086L205.686 21.8101L205.524 21.9043L205.357 21.9937L205.19 22.0771L205.009 22.1581L204.829 22.2282L204.642 22.2982L204.256 22.4251L203.842 22.5278L203.637 22.5701L203.417 22.6112L203.198 22.6402L202.746 22.6922L202.514 22.7103L202.276 22.7236L202.037 22.7296H201.497L201.198 22.7187L200.911 22.697L200.626 22.6777L200.343 22.6487L200.064 22.6112L199.795 22.5653L199.253 22.4517L198.988 22.3816L198.73 22.3115L198.472 22.2282L198.22 22.1387L197.971 22.0397L197.725 21.937L197.481 21.8246L197.242 21.7025L197.004 21.5757L196.772 21.444L196.538 21.3038L196.313 21.1503L196.089 20.9908V27.6173L196.081 27.7442L196.07 27.865L196.057 27.9726L196.037 28.0813L196.01 28.1828L195.985 28.2771L195.952 28.3713L195.919 28.4559L195.875 28.5393L195.837 28.6057L195.785 28.6758L195.741 28.7326L195.681 28.7918L195.623 28.8402L195.56 28.8861L195.494 28.9187L195.423 28.9489L195.351 28.9755L195.275 28.9888L195.193 28.9997H195.023L194.946 28.9948L194.87 28.9755L194.799 28.9562L194.727 28.9296L194.598 28.8547L194.541 28.8112L194.484 28.7604L194.431 28.6952L194.385 28.6335L194.342 28.5635L194.302 28.4873L194.27 28.404L194.237 28.3097L194.213 28.2155L194.184 28.1127L194.166 28.0004L194.155 27.8844L194.141 27.7575L194.135 27.6306V7.93116L194.141 7.80429L194.146 7.6907L194.16 7.57833L194.175 7.46958L194.193 7.36808L194.217 7.27383L194.246 7.18441L194.275 7.09499L194.342 6.94154L194.38 6.87991L194.426 6.81587L194.469 6.75908L194.522 6.71558L194.58 6.66966L194.632 6.6322L194.694 6.59958L194.823 6.56212L194.894 6.54883H195.012L195.05 6.55608L195.084 6.56212ZM200.607 8.66704L200.316 8.68516L200.034 8.71174L199.763 8.75041L199.505 8.78787L199.253 8.83862L199.015 8.90145L198.782 8.97033L198.558 9.04887L198.344 9.13587L198.158 9.21925L197.963 9.32074L197.772 9.43433L197.572 9.56604L197.371 9.7195L197.166 9.88383L196.952 10.0675L196.732 10.2645L196.508 10.4747L196.267 10.7031L196.017 10.9435V18.8436H196.089V18.817L196.667 19.1542L197.229 19.4587L197.772 19.739L198.291 19.9782L198.796 20.1885L199.287 20.3577L199.755 20.5039L200.201 20.6199L200.632 20.7008L201.045 20.7467L201.439 20.7649L201.779 20.7564L202.109 20.7467L202.426 20.7141L202.733 20.6767L203.031 20.6307L203.314 20.5679L203.584 20.4978L203.842 20.4096L204.089 20.3154L204.319 20.1994L204.533 20.081L204.791 19.9215L205.015 19.7487L205.214 19.5662L205.39 19.3692L205.538 19.159L205.662 18.9379L205.757 18.7035L205.834 18.4642L205.891 18.202L205.918 17.9301L205.933 17.6498V11.9078L205.918 11.5767L205.886 11.2662L205.823 10.981L205.738 10.7091L205.624 10.4554L205.486 10.2137L205.319 9.99258L205.132 9.78958L204.913 9.60712L204.667 9.42949L204.399 9.27483L204.179 9.16729L203.947 9.0682L203.7 8.98483L203.443 8.9087L203.165 8.83862L202.875 8.78183L202.574 8.73591L202.256 8.69845L201.927 8.67429L201.588 8.66099L201.231 8.65616L200.916 8.66099L200.607 8.66704Z" fill="#0A0A23"/>
<path d="M82.732 2.13042C84.1301 3.16476 84.8525 4.63047 84.8525 6.41155C84.8525 7.23563 84.5048 7.64888 83.8008 7.64888C83.3106 7.64888 82.9629 7.23563 82.7565 6.41155C82.6153 5.72763 82.3376 5.11017 81.9899 4.46372C81.3572 3.36655 80.0119 2.86509 77.916 2.86509C76.078 2.86509 74.82 3.27834 74.0533 4.16647C73.3518 4.99176 72.9329 6.25205 72.9329 8.10322C72.9329 8.8258 72.9329 14.5763 72.9329 15.2928C72.9329 17.1705 73.3518 18.4756 74.1185 19.2996C74.9576 20.1938 76.239 20.6687 78.0585 20.6687C80.8043 20.6687 82.4089 19.7117 82.7565 17.8363C82.8917 17.144 82.9629 16.802 82.9629 16.7319C83.1055 16.3199 83.3819 16.1169 83.8008 16.1169C84.5048 16.1169 84.8525 16.5301 84.8525 17.3542C84.8525 19.0918 84.1485 20.3968 82.6607 21.4311C81.4751 22.1851 79.9849 22.5984 78.0315 22.5984C75.777 22.5984 74.0288 22.1151 72.7461 21.0807C71.2559 20.1237 70.6318 18.4755 70.6318 16.3199C70.6318 11.1349 70.6318 8.24943 70.6318 7.67305C70.6318 3.1128 73.0042 0.895508 77.9406 0.895508C79.9136 0.895508 81.4555 1.30755 82.732 2.13042Z" fill="#0A0A23"/>
<path d="M183.777 8.38034C184.336 7.69039 184.826 7.27834 185.317 7.07655C185.799 6.80468 186.503 6.66451 187.29 6.66451C189.687 6.66451 190.943 7.83055 190.943 10.1179C190.943 11.2417 190.943 20.2123 190.943 21.3361C190.943 22.2979 190.596 22.71 189.9 22.71C189.196 22.71 188.919 22.2979 188.919 21.3361C188.919 20.2824 188.919 11.8809 188.919 10.8296C188.919 9.39051 188.295 8.60993 187.083 8.60993C186.174 8.60993 185.245 9.15609 184.479 10.2134C184.479 11.3311 184.479 20.3066 184.479 21.4303C184.479 22.3873 184.125 22.7994 183.497 22.7994C182.868 22.7994 182.519 22.3873 182.519 21.4303C182.519 20.39 182.519 12.096 182.519 11.0568C182.519 9.45334 181.824 8.69814 180.539 8.69814C179.708 8.69814 178.914 9.25034 178.079 10.3016C178.079 11.4205 178.079 20.3332 178.079 21.4497C178.079 22.4139 177.728 22.826 177.026 22.826C176.331 22.826 176.054 22.4139 176.054 21.4497C176.054 20.0722 176.054 9.06789 176.054 7.69039C176.054 7.00647 176.331 6.73459 176.892 6.73459C177.169 6.73459 177.445 6.93639 177.588 7.34843C177.728 7.53209 177.794 7.87405 177.794 8.28609C178.451 7.60218 178.87 7.18893 179.051 7.04997C179.47 6.77689 180.029 6.63672 180.824 6.63672C181.939 6.63672 182.938 7.18893 183.777 8.38034Z" fill="#0A0A23"/>
<path d="M96.8175 6.70252L97.5571 6.80522L98.2525 6.94177L98.8852 7.12785L99.4713 7.34897L100.001 7.61602L100.471 7.92052L100.891 8.26731L101.25 8.64793L101.56 9.07931L101.812 9.5421L102.006 10.0484L102.148 10.6018L102.231 11.183L102.258 11.8113V17.4941L102.231 18.1225L102.148 18.7037L102.012 19.2559L101.82 19.7634L101.573 20.2262L101.277 20.6491L100.921 21.037L100.516 21.385L100.052 21.6895L99.5376 21.9565L98.9626 22.1801L98.3373 22.3637L97.6603 22.5027L96.9269 22.603L96.1406 22.6682L95.3015 22.6863L94.412 22.6779L93.579 22.6296L92.8063 22.5329L92.0961 22.4012L91.4475 22.2236L90.8528 22.0024L90.3184 21.7402L89.8417 21.4357L89.4228 21.0889L89.0554 20.7011L88.752 20.2697L88.4989 19.8008L88.3072 19.2885L88.1709 18.7278L88.0885 18.1321L88.0615 17.4941V11.8113L88.0885 11.183L88.1709 10.6018L88.3134 10.0484L88.5075 9.5421L88.7569 9.07931L89.0665 8.64793L89.4277 8.26731L89.8479 7.92052L90.3184 7.61602L90.8479 7.34897L91.4278 7.12785L92.0667 6.94177L92.762 6.80522L93.5016 6.70252L94.3027 6.63727L95.1602 6.61914L96.0165 6.63727L96.8175 6.70252ZM93.5299 8.65639L92.8824 8.76877L92.305 8.92827L91.7865 9.13006L91.3381 9.38381L90.9573 9.67502L90.6477 10.0194L90.4007 10.3988L90.2287 10.8217L90.1181 11.299L90.0862 11.8113V17.4941L90.1181 18.0065L90.2287 18.4753L90.4007 18.9055L90.6526 19.2885L90.9708 19.6232L91.3565 19.9132L91.8148 20.1561L92.3431 20.3579L92.9426 20.5041L93.6122 20.6116L94.3543 20.6624L95.1602 20.6684L95.9514 20.6624L96.675 20.6116L97.3372 20.5174L97.9245 20.3724L98.4466 20.1803L98.8987 19.941L99.2857 19.6546L99.6003 19.3187L99.8472 18.9333L100.019 18.5019L100.13 18.0198L100.162 17.4941V11.8113L100.13 11.299L100.019 10.8217L99.8472 10.3988L99.5953 10.0194L99.2722 9.67502L98.8852 9.38381L98.4221 9.13006L97.8852 8.92827L97.2746 8.76877L96.5976 8.65639L95.8421 8.58631L95.0177 8.56697L94.2449 8.58631L93.5299 8.65639Z" fill="#0A0A23"/>
<path d="M166.172 6.49232L166.41 6.50561L166.635 6.52495L166.854 6.53824L167.067 6.5624L167.279 6.58053L167.487 6.61315L167.687 6.63732L167.878 6.6784L168.065 6.7074L168.245 6.75332L168.426 6.79078L168.593 6.83428L168.769 6.88503L168.931 6.93699L169.085 6.98774L169.241 7.04453L169.388 7.10978L169.537 7.16536L169.678 7.23545L169.813 7.29828L169.942 7.36836L170.07 7.44328L170.212 7.54599L170.348 7.65353L170.475 7.76107L170.599 7.88311L170.717 8.00153L170.832 8.13565L170.941 8.26736L171.045 8.40753L171.141 8.55374L171.232 8.70478L171.314 8.85824L171.399 9.01653L171.542 9.3597L171.604 9.53732L171.662 9.71495L171.714 9.90345L171.76 10.0944L171.799 10.2913L171.832 10.4931L171.856 10.7034L171.881 10.9197L171.896 11.1347L171.909 11.3559V18.7279L171.914 18.8258V18.92L171.928 19.0977L171.941 19.262L171.952 19.3454L171.966 19.4203L171.98 19.4904L171.999 19.5665L172.01 19.6366L172.052 19.7634L172.076 19.8275L172.152 19.9979L172.179 20.0486L172.21 20.0994L172.243 20.1429L172.319 20.2323L172.404 20.3157L172.418 20.3205L172.437 20.3338L172.448 20.3447L172.475 20.3531L172.495 20.3664L172.547 20.3906L172.577 20.4099L172.643 20.4341L172.682 20.4522L172.72 20.4667L172.856 20.5223L173.01 20.5827L173.068 20.6008L173.125 20.625L173.186 20.6443L173.243 20.6685L173.306 20.6951L173.377 20.7192L173.415 20.7325L173.495 20.7712L173.525 20.7978L173.558 20.8171L173.624 20.8654L173.649 20.8969L173.673 20.9247L173.7 20.9537L173.72 20.9911L173.738 21.0237L173.777 21.0999L173.791 21.1458L173.805 21.1832L173.816 21.234L173.829 21.2775L173.834 21.3282L173.848 21.3802L173.854 21.4358V21.4926L173.863 21.5518V21.8055L173.848 21.8672L173.843 21.9191L173.829 21.9747L173.816 22.0267L173.796 22.0774L173.777 22.1209L173.752 22.1668L173.725 22.2043L173.662 22.2792L173.629 22.3118L173.591 22.3444L173.453 22.4194L173.353 22.458L173.295 22.4713L173.23 22.4822L173.101 22.4955L173.03 22.5027H172.901L172.876 22.4955H172.856L172.829 22.4894H172.805L172.778 22.4822L172.649 22.458L172.618 22.4435L172.577 22.4387L172.539 22.4254L172.5 22.4194L172.366 22.3819L172.315 22.3686L172.27 22.3553L172.219 22.3444L172.161 22.3312L172.108 22.3118L172.052 22.2985L171.87 22.2369L171.785 22.2043L171.703 22.1801L171.624 22.1475L171.47 22.0967L171.399 22.0726L171.328 22.0508L171.265 22.0267L171.205 22.0073L171.141 21.9892L171.09 21.9699L171.032 21.9505L170.98 21.9372L170.936 21.9191L170.889 21.9046L170.813 21.8804L170.717 21.843L170.689 21.8345L170.671 21.8249L170.651 21.8164L170.607 21.8104L170.566 21.8055L170.522 21.7922L170.484 21.7789L170.446 21.7596L170.413 21.7354L170.375 21.7089L170.341 21.6847L170.308 21.6521L170.279 21.6146L170.246 21.582L170.219 21.5385L170.194 21.501L170.161 21.4503L170.136 21.4044L170.117 21.356L170.09 21.3041L170.065 21.2473L170.027 21.1313L169.95 20.8787L169.927 20.8087L169.646 20.9996L169.375 21.1772L169.246 21.2666L169.002 21.4177L168.884 21.4926L168.664 21.6327L168.459 21.7596L168.363 21.8164L168.273 21.8672L168.105 21.9699L168.021 22.0134L167.949 22.0593L167.744 22.1584L167.687 22.1849L167.583 22.2369L167.53 22.2478L167.448 22.2877L167.363 22.3118L167.183 22.3734L166.893 22.452L166.797 22.4713L166.693 22.4955L166.591 22.5136L166.372 22.5523L166.263 22.5656L166.153 22.5837L165.804 22.6224L165.681 22.6296L165.559 22.6405L165.435 22.6489L165.306 22.6538L165.185 22.6598H164.586L164.385 22.6538L164.191 22.6489L163.804 22.6224L163.432 22.5837L163.251 22.5595L163.071 22.5281L162.723 22.4629L162.389 22.3879L162.227 22.3444L162.065 22.2937L161.909 22.2417L161.755 22.1849L161.46 22.0726L161.318 22.0025L161.175 21.9372L161.04 21.8672L160.904 21.7922L160.775 21.7161L160.646 21.6327L160.498 21.5337L160.356 21.4309L160.087 21.2014L159.964 21.089L159.846 20.9669L159.73 20.8413L159.627 20.7144L159.525 20.5827L159.429 20.4425L159.345 20.3024L159.26 20.1562L159.182 20.0112L159.112 19.8577L159.048 19.7067L158.991 19.5472L158.887 19.2185L158.848 19.0517L158.816 18.8814L158.763 18.5261L158.739 18.16V17.7794L158.75 17.5933L158.763 17.4048L158.792 17.2272L158.854 16.8719L158.944 16.5299L159.002 16.3656L159.131 16.0466L159.211 15.8883L159.287 15.7373L159.467 15.4461L159.563 15.3059L159.668 15.1718L159.777 15.0389L159.899 14.9132L160.015 14.7912L160.144 14.6727L160.278 14.5567L160.563 14.3417L160.717 14.2414L160.988 14.0504L161.131 13.961L161.427 13.7967L161.737 13.6432L161.897 13.5768L162.218 13.4475L162.389 13.3907L162.737 13.2904L162.909 13.2445L163.089 13.2022L163.271 13.1635L163.452 13.1321L163.637 13.0995L163.824 13.0753L164.018 13.056L164.205 13.0379L164.405 13.0234L164.599 13.0101L164.799 13.0052H165.167L165.334 13.0101L165.506 13.0161L165.853 13.0427L166.029 13.062L166.21 13.0802L166.392 13.1043L166.577 13.1369L166.758 13.1635L166.944 13.2022L167.131 13.2312L167.325 13.2723L167.711 13.3605L168.312 13.5115L168.512 13.5683L168.722 13.6251L168.931 13.6892L169.141 13.7508L169.355 13.8209L169.575 13.8909L169.794 13.9671V11.5395L169.789 11.3994L169.78 11.2664L169.769 11.1347L169.749 11.0006L169.722 10.8822L169.698 10.7529L169.66 10.6333L169.622 10.5185L169.575 10.4049L169.522 10.2974L169.465 10.1886L169.336 9.98682L169.259 9.88411L169.183 9.7959L169.098 9.70165L168.918 9.53732L168.813 9.45395L168.593 9.3029L168.479 9.23282L168.355 9.16757L168.227 9.10595L168.092 9.0407L168.002 9.00324L167.807 8.92832L167.397 8.80145L167.067 8.72653L166.949 8.70478L166.84 8.68545L166.72 8.66732L166.602 8.64799L166.487 8.63711L166.243 8.61053L166.114 8.59724L165.991 8.5912L165.862 8.5779L165.733 8.57186H165.605L165.476 8.56703H164.895L164.59 8.5779L164.296 8.5912L164.018 8.61778L163.753 8.64799L163.495 8.68545L163.256 8.72653L163.024 8.77486L162.804 8.83407L162.599 8.90174L162.407 8.97061L162.218 9.04915L162.046 9.13615L161.884 9.22436L161.737 9.32707L161.599 9.42978L161.471 9.54215L161.356 9.6642L161.251 9.7959L161.155 9.93003L161.079 10.0678L161.002 10.2212L160.942 10.3807L160.892 10.5451L160.854 10.7142L160.841 10.7976L160.821 10.8737L160.794 11.0139L160.77 11.1408L160.745 11.2532L160.73 11.3051L160.723 11.3559L160.712 11.3994L160.703 11.4453L160.692 11.4827L160.685 11.5202L160.674 11.5854L160.659 11.6362V11.6604L160.654 11.6797V11.6978L160.646 11.7111V11.7437L160.627 11.7872L160.588 11.8622L160.569 11.8948L160.517 11.96L160.498 11.989L160.465 12.0156L160.44 12.0398L160.407 12.0676L160.383 12.0857L160.349 12.105L160.311 12.1244L160.278 12.1425L160.24 12.1534L160.207 12.1667L160.169 12.1799L160.126 12.1944L160.087 12.1993L160.04 12.2126L159.997 12.2186H159.95L159.906 12.2234H159.725L159.649 12.2186L159.492 12.1944L159.421 12.1799L159.229 12.105L159.169 12.0676L159.112 12.0349L159.059 11.989L159.01 11.9516L158.919 11.8513L158.881 11.7921L158.816 11.6797L158.783 11.6096L158.763 11.5395L158.739 11.4694L158.72 11.3933L158.706 11.3184L158.701 11.235L158.692 11.1456V10.9378L158.701 10.8121L158.706 10.6901L158.725 10.5692L158.739 10.4508L158.792 10.2079L158.854 9.9687L158.892 9.84665L158.93 9.73428L158.977 9.61224L159.03 9.49986L159.087 9.37782L159.202 9.14945L159.416 8.80628L159.492 8.69874L159.578 8.58636L159.846 8.26253L159.95 8.15499L160.066 8.01965L160.336 7.7804L160.485 7.66682L160.808 7.45174L160.983 7.35507L161.162 7.25961L161.356 7.1714L161.55 7.08803L161.755 7.0119L161.975 6.93699L162.194 6.87174L162.427 6.81011L162.665 6.75332L162.909 6.70257L163.16 6.65665L163.418 6.61315L163.961 6.54911L164.243 6.52495L164.534 6.50561L164.829 6.49232L165.134 6.48628L165.443 6.48145H165.686L165.933 6.48628L166.172 6.49232ZM163.213 15.3252L162.374 15.6164L161.723 16.0333L161.251 16.5674L160.969 17.2187L160.879 17.9957L160.904 18.3992L160.983 18.7799L161.117 19.1399L161.303 19.4722L161.541 19.7634L161.846 20.0112L162.207 20.2129L162.517 20.3773L162.857 20.5174L163.224 20.631L163.619 20.7192L164.038 20.7845L164.481 20.8219L164.953 20.8352L165.367 20.8219L165.764 20.7978L166.153 20.747L166.53 20.6685L166.9 20.5742L167.268 20.4425L167.626 20.283L167.873 20.1429L168.145 19.9652L168.446 19.7683L168.769 19.5472L169.117 19.2994L169.479 19.0324L169.86 18.7497V15.8448L169.201 15.6479L168.544 15.4835L167.893 15.3434L167.254 15.2358L166.63 15.1524L166.024 15.1041L165.443 15.0908L164.238 15.1476L163.213 15.3252Z" fill="#0A0A23"/>
<path d="M118.778 0.0459167L118.854 0.0700833L118.926 0.107542L118.992 0.145L119.055 0.190917L119.112 0.242875L119.217 0.35525L119.264 0.425333L119.302 0.501458L119.34 0.584833L119.373 0.665792L119.422 0.856708L119.46 1.073L119.474 1.31225L119.482 1.43912V21.785L119.474 21.8805L119.469 21.9687L119.46 22.0521L119.422 22.2031L119.402 22.2732L119.373 22.3385L119.346 22.4001L119.268 22.5161L119.179 22.6043L119.126 22.6478L119.074 22.6804L119.012 22.713L118.954 22.742L118.888 22.7686L118.816 22.788L118.663 22.8121L118.584 22.8206H118.444L118.288 22.8012L118.235 22.788L118.192 22.7686L118.146 22.7553L118.101 22.7312L118.063 22.713L118.025 22.6852L117.987 22.6538L117.921 22.591L117.888 22.5535L117.811 22.4194L117.792 22.3699L117.773 22.3107L117.759 22.2539L117.74 22.1983L117.734 22.1355V22.0388L117.729 21.988V21.9445L117.72 21.8938V21.8503L117.716 21.7995V21.7476L117.707 21.6968L117.702 21.64L117.696 21.5893V21.5325L117.682 21.4189V21.3549L117.677 21.2981L117.669 21.228V21.0963L117.663 21.0262V20.8715L117.496 20.9742L117.34 21.077L117.181 21.176L116.883 21.3549L116.749 21.4431L116.606 21.5265L116.348 21.6775L116.225 21.7476L116.11 21.8177L115.994 21.8805L115.685 22.0521L115.595 22.0956L115.504 22.1463L115.337 22.2225L115.195 22.2865L115.123 22.3107L115.019 22.3517L114.91 22.3892L114.8 22.4194L114.57 22.4835L114.201 22.5584L114.072 22.5862L113.814 22.6236L113.543 22.6611L113.408 22.6744L113.127 22.6985L112.984 22.7046L112.836 22.713L112.693 22.7179L112.546 22.7227H111.984L111.726 22.7179L111.483 22.7046L111.236 22.6852L110.998 22.6671L110.759 22.6345L110.535 22.6043L110.082 22.527L109.657 22.4267L109.445 22.3699L109.245 22.3107L109.044 22.2442L108.659 22.104L108.472 22.0195L108.291 21.9397L108.116 21.8503L107.944 21.7536L107.775 21.6594L107.606 21.5567L107.434 21.4382L107.099 21.1712L106.948 21.031L106.801 20.886L106.661 20.7326L106.529 20.5755L106.409 20.4087L106.291 20.2444L106.086 19.8916L105.995 19.7055L105.919 19.517L105.841 19.32L105.776 19.1231L105.719 18.9128L105.674 18.6978L105.634 18.4815L105.603 18.2615L105.576 18.032L105.565 17.7975V11.5082L105.576 11.2738L105.603 11.0526L105.628 10.8375L105.666 10.6225L105.719 10.4122L105.77 10.2092L105.833 10.0135L105.904 9.82133L105.981 9.63887L106.071 9.45521L106.162 9.27758L106.267 9.10479L106.381 8.94046L106.499 8.78217L106.628 8.62267L106.757 8.47767L106.899 8.33146L107.047 8.19129L107.367 7.92788L107.543 7.80583L107.697 7.70433L107.853 7.60887L108.02 7.51462L108.195 7.42642L108.367 7.34304L108.548 7.25967L108.921 7.12192L109.116 7.05183L109.516 6.93583L109.926 6.83554L110.14 6.79808L110.359 6.76062L110.579 6.728L110.804 6.69658L111.256 6.65792L111.488 6.64463L111.726 6.63979H112.28L112.59 6.65308L112.737 6.65792L112.893 6.66396L113.036 6.67725L113.183 6.69054L113.319 6.70142L113.461 6.72075L113.731 6.76062L113.86 6.77996L114.118 6.82829L114.241 6.85487L114.357 6.87904L114.704 6.97571L114.809 7.01437L114.918 7.05183L115.019 7.08929L115.129 7.12675L115.233 7.17267L115.343 7.21617L115.453 7.26692L115.567 7.31887L115.787 7.43125L116.134 7.62337L116.252 7.68983L116.6 7.91942L116.845 8.08375L116.962 8.17317L117.083 8.26138L117.206 8.35804L117.449 8.56104V1.43912L117.458 1.31225L117.469 1.073L117.51 0.856708L117.529 0.762458L117.56 0.665792L117.587 0.584833L117.625 0.501458L117.663 0.425333L117.707 0.35525L117.754 0.299667L117.805 0.242875L117.858 0.190917L117.921 0.145L117.978 0.107542L118.044 0.0700833L118.115 0.0459167L118.268 0.00845833L118.346 0H118.526L118.611 0.00845833L118.778 0.0459167ZM111.778 8.73867L111.455 8.76767L111.14 8.80029L110.831 8.85225L110.541 8.91629L110.256 8.98396L109.993 9.07217L109.74 9.17004L109.501 9.28242L109.283 9.40446L109.031 9.58208L108.792 9.77058L108.581 9.97479L108.392 10.1911L108.225 10.4122L108.085 10.6515L107.962 10.9052L107.872 11.1722L107.806 11.4514L107.762 11.7378L107.748 12.0422V17.5063L107.762 17.8217L107.801 18.1214L107.858 18.4065L107.948 18.6784L108.058 18.9322L108.195 19.175L108.362 19.401L108.554 19.6112L108.768 19.8082L109.011 19.9774L109.283 20.1441L109.521 20.2529L109.768 20.352L110.025 20.4414L110.296 20.5296L110.573 20.6057L110.869 20.6697L111.173 20.7265L111.494 20.7725L111.822 20.8027L112.165 20.8208L112.519 20.8293L113.085 20.816L113.365 20.7966L113.633 20.7725L114.163 20.6939L114.414 20.6456L114.66 20.5815L114.898 20.5115L115.123 20.4353L115.337 20.3471L115.515 20.2251L115.704 20.0982L115.896 19.9665L116.09 19.8215L116.29 19.6753L116.496 19.517L116.709 19.3527L116.921 19.1799L117.139 18.9962L117.368 18.8053L117.591 18.6083V10.6406L117.329 10.4545L117.072 10.2853L116.825 10.1125L116.582 9.95425L116.348 9.80804L116.129 9.67633L115.916 9.54946L115.715 9.44192L115.529 9.34767L115.357 9.26429L115.195 9.19904L114.962 9.11325L114.729 9.03471L114.491 8.96463L114.247 8.903L114.003 8.85225L113.751 8.81358L113.493 8.77612L113.241 8.74954L112.976 8.73021L112.447 8.71933L112.113 8.72537L111.778 8.73867Z" fill="#0A0A23"/>
<path d="M153.266 2.13042C154.665 3.16476 155.386 4.63047 155.386 6.41155C155.386 7.23563 155.038 7.64888 154.337 7.64888C153.852 7.64888 153.504 7.23563 153.293 6.41155C153.15 5.72763 152.874 5.11017 152.526 4.46372C151.893 3.36655 150.544 2.86509 148.452 2.86509C146.613 2.86509 145.356 3.27834 144.588 4.16647C143.893 4.99176 143.474 6.25205 143.474 8.10322C143.474 8.8258 143.474 14.5763 143.474 15.2928C143.474 17.1705 143.893 18.4756 144.659 19.2996C145.498 20.1938 146.775 20.6687 148.591 20.6687C151.339 20.6687 152.945 19.7117 153.293 17.8363C153.433 17.144 153.504 16.802 153.504 16.7319C153.64 16.3199 153.923 16.1169 154.337 16.1169C155.038 16.1169 155.386 16.5301 155.386 17.3542C155.386 19.0918 154.689 20.3968 153.202 21.4311C152.007 22.1851 150.52 22.5984 148.566 22.5984C146.309 22.5984 144.564 22.1151 143.287 21.0807C141.863 20.1237 141.167 18.4755 141.167 16.3199C141.167 11.1349 141.167 8.24943 141.167 7.67305C141.167 3.1128 143.564 0.895508 148.477 0.895508C150.455 0.895508 151.989 1.30755 153.266 2.13042Z" fill="#0A0A23"/>
<path d="M131.709 6.71579L132.243 6.77741L132.753 6.87166L133.239 6.98766L133.696 7.12783L134.126 7.29821L134.535 7.48912L134.907 7.71025L135.26 7.95796L135.584 8.225L135.879 8.52104L136.15 8.83883L136.402 9.18683L136.622 9.56141L136.816 9.95412L136.983 10.3807L137.123 10.8217L137.241 11.299L137.331 11.792L137.395 12.32L137.433 12.865L137.446 13.4414L137.441 13.5815L137.433 13.7132L137.422 13.8401L137.408 13.961L137.384 14.083L137.355 14.1905L137.324 14.2981L137.293 14.3923L137.255 14.4817L137.208 14.57L137.156 14.6461L137.099 14.721L137.041 14.7911L136.912 14.9071L136.756 14.9965L136.589 15.0581L136.493 15.0847L136.397 15.0956L136.293 15.1089L125.341 15.1101L125.34 17.2404L125.354 17.5376L125.378 17.8276L125.43 18.1031L125.496 18.3617L125.586 18.6094L125.688 18.8438L125.817 19.0601L125.959 19.2667L126.126 19.4589L126.307 19.6413L126.515 19.8057L126.739 19.9591L126.978 20.0993L127.241 20.2262L127.526 20.3397L127.822 20.4425L128.145 20.5222L128.488 20.6007L128.846 20.6575L129.227 20.701L129.628 20.7385L130.047 20.7566L130.485 20.7651H130.646L130.808 20.7566H130.962L131.272 20.747L131.419 20.7325L131.562 20.7276L131.844 20.701L131.98 20.6902L132.114 20.6684L132.501 20.6116L132.748 20.5609L132.981 20.5125L133.09 20.4799L133.2 20.4521L133.31 20.4231L133.411 20.3857L133.567 20.3337L133.624 20.3071L133.687 20.2878L133.753 20.2588L133.825 20.2322L133.896 20.1996L133.972 20.1621L134.049 20.1295L134.216 20.0437L134.306 19.9978L134.397 19.9458L134.493 19.8951L134.591 19.8383L134.693 19.7815L134.798 19.7199L134.907 19.6546L135.016 19.5845L135.132 19.5096L135.377 19.3562L135.502 19.2752L135.631 19.1858L135.707 19.1157L135.789 19.0456L135.86 18.984L135.939 18.92L136.008 18.8632L136.079 18.8112L136.208 18.7097L136.268 18.6662L136.331 18.6203L136.389 18.5828L136.441 18.5454L136.493 18.5127L136.545 18.4886L136.589 18.456L136.68 18.4185L136.718 18.3992L136.794 18.375L136.827 18.3665L136.854 18.3617H136.956L137.027 18.3665L137.093 18.375L137.208 18.3992L137.266 18.4185L137.317 18.4366L137.37 18.4644L137.413 18.4886L137.451 18.5212L137.531 18.5961L137.562 18.6336L137.594 18.6795L137.647 18.7798L137.665 18.8354L137.685 18.9006L137.712 19.0275L137.718 19.0976L137.723 19.1725V19.332L137.712 19.4154L137.704 19.4963L137.685 19.5712L137.665 19.6546L137.64 19.7392L137.609 19.819L137.569 19.8951L137.531 19.9785L137.484 20.0618L137.384 20.2262L137.324 20.3023L137.26 20.3857L137.117 20.55L136.865 20.7977L136.575 21.043L136.466 21.1312L136.107 21.385L135.912 21.5058L135.707 21.6278L135.502 21.7354L135.282 21.8429L135.054 21.9372L134.822 22.0314L134.584 22.1208L134.334 22.2042L134.076 22.2791L133.811 22.3492L133.54 22.4193L133.263 22.4761L132.981 22.528L132.682 22.5788L132.381 22.6162L132.071 22.6537L131.753 22.6779L131.433 22.7057L130.762 22.7298H130.414L129.813 22.7238L129.241 22.6924L128.693 22.6404L128.169 22.5655L127.679 22.4761L127.211 22.3637L126.764 22.2284L126.354 22.0725L125.959 21.8997L125.597 21.7027L125.263 21.4877L124.953 21.2472L124.672 20.991L124.411 20.7143L124.186 20.4098L123.981 20.092L123.806 19.7489L123.658 19.3888L123.534 19.0033L123.438 18.601L123.376 18.178L123.329 17.7285L123.315 17.2597V11.7219L123.324 11.566L123.329 11.3993L123.342 11.2482L123.362 11.0887L123.387 10.9305L123.452 10.626L123.496 10.4797L123.543 10.3287L123.594 10.1837L123.652 10.0387L123.715 9.89854L123.857 9.61821L123.942 9.48046L124.024 9.34512L124.115 9.21341L124.22 9.08654L124.315 8.96087L124.425 8.834L124.658 8.59112L124.786 8.47029L124.953 8.31321L125.129 8.16579L125.315 8.01958L125.501 7.88787L125.701 7.761L125.915 7.64016L126.126 7.52658L126.354 7.41904L126.578 7.32479L126.817 7.22812L127.063 7.14716L127.579 6.99371L127.841 6.93087L128.118 6.87166L128.397 6.82333L128.685 6.78587L128.984 6.746L129.285 6.71579L129.588 6.69646L129.904 6.67833L130.227 6.66987L130.557 6.66504L131.148 6.67833L131.709 6.71579ZM129.208 8.65637L128.706 8.73612L128.222 8.85816L127.759 9.00921L127.307 9.19529L126.882 9.41037L126.463 9.71487L126.115 10.0302L125.835 10.3722L125.616 10.7275L125.463 11.102L125.373 11.496L125.34 11.908V13.0752H135.397L135.293 11.8899L134.978 10.8821L134.455 10.0568L133.72 9.41521L132.78 8.95241L131.619 8.68054L130.252 8.58629L129.724 8.60441L129.208 8.65637Z" fill="#0A0A23"/>
</g>
<defs>
<clipPath id="clip0">
<rect width="208" height="29" fill="white"/>
</clipPath>
</defs>
</svg>
