<svg id="git-logo" width="46" height="48" viewBox="0 0 46 48" fill="none" xmlns="http://www.w3.org/2000/svg">
<g filter="url(#filter0_d)">
<path d="M4 6.45117C4 4.24203 5.79086 2.45117 8 2.45117H38C40.2091 2.45117 42 4.24203 42 6.45117V39.5479C42 41.7571 40.2091 43.5479 38 43.5479H8C5.79086 43.5479 4 41.7571 4 39.5479V6.45117Z" fill="#385F92"/>
</g>
<path d="M22.8827 9C14.66 9 8 15.5256 8 23.5733C8 30.0136 12.2639 35.4751 18.176 37.3994C18.9202 37.5366 19.1936 37.0861 19.1936 36.6986C19.1936 36.352 19.1806 35.4362 19.175 34.2219C15.0358 35.1006 14.1614 32.266 14.1614 32.266C13.4843 30.5846 12.5057 30.1341 12.5057 30.1341C11.157 29.2313 12.6099 29.2479 12.6099 29.2479C14.1038 29.3499 14.8888 30.7496 14.8888 30.7496C16.2152 32.9779 18.3732 32.3346 19.2234 31.962C19.3573 31.0202 19.7406 30.377 20.1666 30.0136C16.8608 29.6484 13.3875 28.3952 13.3875 22.8113C13.3875 21.2207 13.9642 19.9211 14.9186 18.9015C14.7512 18.5344 14.2489 17.0514 15.0488 15.0436C15.0488 15.0436 16.2952 14.6524 19.1415 16.5378C20.3322 16.2134 21.5972 16.054 22.8622 16.0466C24.1272 16.054 25.3923 16.2134 26.5829 16.5378C29.4106 14.6524 30.657 15.0436 30.657 15.0436C31.457 17.0514 30.9547 18.5326 30.8058 18.9015C31.7546 19.9211 32.3313 21.2207 32.3313 22.8113C32.3313 28.41 28.8525 29.6428 25.5411 30.0006C26.062 30.4381 26.5457 31.3317 26.5457 32.6961C26.5457 34.6464 26.5271 36.2129 26.5271 36.6875C26.5271 37.0694 26.7875 37.5255 27.5503 37.379C33.5052 35.4695 37.7654 30.0043 37.7654 23.5751C37.7654 15.5256 31.1016 9 22.8827 9V9Z" fill="white"/>
<defs>
<filter id="filter0_d" x="4" y="2.45117" width="38" height="45.0968" filterUnits="userSpaceOnUse" color-interpolation-filters="sRGB">
<feFlood flood-opacity="0" result="BackgroundImageFix"/>
<feColorMatrix in="SourceAlpha" type="matrix" values="0 0 0 0 0 0 0 0 0 0 0 0 0 0 0 0 0 0 127 0"/>
<feOffset dy="4"/>
<feColorMatrix type="matrix" values="0 0 0 0 1 0 0 0 0 1 0 0 0 0 1 0 0 0 0.5 0"/>
<feBlend mode="normal" in2="BackgroundImageFix" result="effect1_dropShadow"/>
<feBlend mode="normal" in="SourceGraphic" in2="effect1_dropShadow" result="shape"/>
</filter>
</defs>
</svg>
