<svg width="30" height="41" viewBox="5 0 30 45" fill="none" xmlns="http://www.w3.org/2000/svg">
<path d="M5.98718 35.4255V36.0005L6.48412 36.2898L19.4969 43.8643L20 44.1571L20.5031 43.8643L33.5159 36.2898L34.0128 36.0005V35.4255V10.5745V9.99946L33.5159 9.7102L20.5031 2.13575L20 1.84293L19.4969 2.13575L6.48412 9.7102L5.98718 9.99946V10.5745V35.4255Z" fill="#62B400" stroke="white" stroke-width="2"/>
<path d="M20 3L33.0128 10.5745V35.4255L20 43V3Z" fill="#4C8C00"/>
<path d="M20 18.0578L6.98718 10.5755L20 3.00195V18.0578Z" fill="#92E200"/>
<path d="M20 27.9443L6.98718 35.4267L20 43.0002V27.9443Z" fill="#92E200"/>
<path d="M20 18.0568L33.0128 10.5746L20 3.00098V18.0568Z" fill="#62B400"/>
<path d="M20 27.9443L33.0128 35.4267L20 43.0002V27.9443Z" fill="#62B400"/>
<path d="M20 35.7095L26.7117 31.8027V14.1977L20 10.291L13.2883 14.1977V31.8027L20 35.7095Z" fill="#C6EA4B"/>
<path d="M20 10.291V35.7095L26.7117 31.8027V14.1977L20 10.291Z" fill="#92E200"/>
</svg>
