<svg width="100%" height="100%" viewBox="0 0 1280 103" fill="none" preserveAspectRatio="none" xmlns="http://www.w3.org/2000/svg">
<path d="M1331.72 9.66868C1320.79 9.66868 1320.79 0 1309.85 0C1298.92 0 1298.92 9.66868 1287.99 9.66868C1277.06 9.66868 1277.06 0 1266.12 0C1255.19 0 1255.19 9.66868 1244.26 9.66868C1233.33 9.66868 1233.33 0 1222.4 0C1211.46 0 1211.46 9.66868 1200.53 9.66868C1189.6 9.66868 1189.6 0 1178.66 0C1167.73 0 1167.73 9.66868 1156.8 9.66868C1145.86 9.66868 1145.86 0 1134.93 0H1124V102.166C1124 104.836 1125.63 107 1127.63 107H1350V0.406087C1342.49 2.23991 1341.31 9.66868 1331.72 9.66868Z" fill="#0D2F1E"/>
<path d="M1105.72 9.66868C1094.79 9.66868 1094.79 0 1083.85 0C1072.92 0 1072.92 9.66868 1061.99 9.66868C1051.06 9.66868 1051.06 0 1040.12 0C1029.19 0 1029.19 9.66868 1018.26 9.66868C1007.33 9.66868 1007.33 0 996.395 0C985.462 0 985.462 9.66868 974.529 9.66868C963.596 9.66868 963.596 0 952.662 0C941.729 0 941.729 9.66868 930.797 9.66868C919.864 9.66868 919.864 0 908.931 0H898V102.166C898 104.836 899.625 107 901.63 107H1124V0.406087C1116.49 2.23991 1115.31 9.66868 1105.72 9.66868Z" fill="#0D2F1E"/>
<path d="M879.722 9.66868C868.788 9.66868 868.788 0 857.855 0C846.922 0 846.922 9.66868 835.989 9.66868C825.056 9.66868 825.056 0 814.124 0C803.192 0 803.192 9.66868 792.261 9.66868C781.328 9.66868 781.328 0 770.395 0C759.462 0 759.462 9.66868 748.529 9.66868C737.596 9.66868 737.596 0 726.662 0C715.729 0 715.729 9.66868 704.797 9.66868C693.864 9.66868 693.864 0 682.931 0H672V102.166C672 104.836 673.625 107 675.63 107H898V0.406087C890.489 2.23991 889.306 9.66868 879.722 9.66868Z" fill="#0D2F1E"/>
<path d="M653.722 9.66868C642.788 9.66868 642.788 0 631.855 0C620.922 0 620.922 9.66868 609.989 9.66868C599.056 9.66868 599.056 0 588.124 0C577.192 0 577.192 9.66868 566.261 9.66868C555.328 9.66868 555.328 0 544.395 0C533.462 0 533.462 9.66868 522.529 9.66868C511.596 9.66868 511.596 0 500.662 0C489.729 0 489.729 9.66868 478.797 9.66868C467.864 9.66868 467.864 0 456.931 0H446V102.166C446 104.836 447.625 107 449.63 107H672V0.406087C664.489 2.23991 663.306 9.66868 653.722 9.66868Z" fill="#0D2F1E"/>
<path d="M427.722 9.66868C416.788 9.66868 416.788 0 405.855 0C394.922 0 394.922 9.66868 383.989 9.66868C373.056 9.66868 373.056 0 362.124 0C351.192 0 351.192 9.66868 340.261 9.66868C329.328 9.66868 329.328 0 318.395 0C307.462 0 307.462 9.66868 296.529 9.66868C285.596 9.66868 285.596 0 274.662 0C263.729 0 263.729 9.66868 252.797 9.66868C241.864 9.66868 241.864 0 230.931 0H220V102.166C220 104.836 221.625 107 223.63 107H446V0.406087C438.489 2.23991 437.306 9.66868 427.722 9.66868Z" fill="#0D2F1E"/>
<path d="M201.722 9.66868C190.788 9.66868 190.788 0 179.855 0C168.922 0 168.922 9.66868 157.989 9.66868C147.056 9.66868 147.056 0 136.124 0C125.192 0 125.192 9.66868 114.261 9.66868C103.328 9.66868 103.328 0 92.3952 0C81.4625 0 81.4625 9.66868 70.5293 9.66868C59.5956 9.66868 59.5956 0 48.6625 0C37.7293 0 37.7293 9.66868 26.7966 9.66868C15.8639 9.66868 15.8639 0 4.93124 0H-6V102.166C-6 104.836 -4.37493 107 -2.37045 107H220V0.406087C212.489 2.23991 211.306 9.66868 201.722 9.66868Z" fill="#0D2F1E"/>
</svg>
