<svg width="39" height="49" viewBox="0 0 39 49" fill="none" xmlns="http://www.w3.org/2000/svg">
<g filter="url(#filter0_d)">
<mask id="path-2-inside-1" fill="white">
<path fill-rule="evenodd" clip-rule="evenodd" d="M16 0H12V2H10V18H4V24H5V26H7V29H9.51724V31.3448H10V35H13V41H18H22H23H24.6897H28H30.2069V35H33V31.3448H34.3448V20.3103H33V16H28V12H23V11H18V2H16V0Z"/>
</mask>
<path fill-rule="evenodd" clip-rule="evenodd" d="M16 0H12V2H10V18H4V24H5V26H7V29H9.51724V31.3448H10V35H13V41H18H22H23H24.6897H28H30.2069V35H33V31.3448H34.3448V20.3103H33V16H28V12H23V11H18V2H16V0Z" fill="#05C7F2"/>
<path d="M12 0V-2H10V0H12ZM16 0H18V-2H16V0ZM12 2V4H14V2H12ZM10 2V0H8V2H10ZM10 18V20H12V18H10ZM4 18V16H2V18H4ZM4 24H2V26H4V24ZM5 24H7V22H5V24ZM5 26H3V28H5V26ZM7 26H9V24H7V26ZM7 29H5V31H7V29ZM9.51724 29H11.5172V27H9.51724V29ZM9.51724 31.3448H7.51724V33.3448H9.51724V31.3448ZM10 31.3448H12V29.3448H10V31.3448ZM10 35H8V37H10V35ZM13 35H15V33H13V35ZM13 41H11V43H13V41ZM30.2069 41V43H32.2069V41H30.2069ZM30.2069 35V33H28.2069V35H30.2069ZM33 35V37H35V35H33ZM33 31.3448V29.3448H31V31.3448H33ZM34.3448 31.3448V33.3448H36.3448V31.3448H34.3448ZM34.3448 20.3103H36.3448V18.3103H34.3448V20.3103ZM33 20.3103H31V22.3103H33V20.3103ZM33 16H35V14H33V16ZM28 16H26V18H28V16ZM28 12H30V10H28V12ZM23 12H21V14H23V12ZM23 11H25V9H23V11ZM18 11H16V13H18V11ZM18 2H20V0H18V2ZM16 2H14V4H16V2ZM12 2H16V-2H12V2ZM14 2V0H10V2H14ZM10 4H12V0H10V4ZM12 18V2H8V18H12ZM4 20H10V16H4V20ZM6 24V18H2V24H6ZM5 22H4V26H5V22ZM7 26V24H3V26H7ZM7 24H5V28H7V24ZM9 29V26H5V29H9ZM9.51724 27H7V31H9.51724V27ZM11.5172 31.3448V29H7.51724V31.3448H11.5172ZM10 29.3448H9.51724V33.3448H10V29.3448ZM12 35V31.3448H8V35H12ZM13 33H10V37H13V33ZM15 41V35H11V41H15ZM18 39H13V43H18V39ZM22 39H18V43H22V39ZM23 39H22V43H23V39ZM24.6897 39H23V43H24.6897V39ZM28 39H24.6897V43H28V39ZM30.2069 39H28V43H30.2069V39ZM28.2069 35V41H32.2069V35H28.2069ZM33 33H30.2069V37H33V33ZM31 31.3448V35H35V31.3448H31ZM34.3448 29.3448H33V33.3448H34.3448V29.3448ZM32.3448 20.3103V31.3448H36.3448V20.3103H32.3448ZM33 22.3103H34.3448V18.3103H33V22.3103ZM31 16V20.3103H35V16H31ZM28 18H33V14H28V18ZM26 12V16H30V12H26ZM23 14H28V10H23V14ZM21 11V12H25V11H21ZM18 13H23V9H18V13ZM16 2V11H20V2H16ZM16 4H18V0H16V4ZM14 0V2H18V0H14Z" fill="black" mask="url(#path-2-inside-1)"/>
</g>
<rect x="16" y="11" width="2" height="7" fill="black"/>
<rect x="21" y="12" width="2" height="7" fill="black"/>
<rect x="26" y="15" width="2" height="7" fill="black"/>
<rect x="11" y="18" width="2" height="7" fill="black"/>
<defs>
<filter id="filter0_d" x="0" y="0" width="38.3448" height="49" filterUnits="userSpaceOnUse" color-interpolation-filters="sRGB">
<feFlood flood-opacity="0" result="BackgroundImageFix"/>
<feColorMatrix in="SourceAlpha" type="matrix" values="0 0 0 0 0 0 0 0 0 0 0 0 0 0 0 0 0 0 127 0"/>
<feOffset dy="4"/>
<feGaussianBlur stdDeviation="2"/>
<feColorMatrix type="matrix" values="0 0 0 0 0 0 0 0 0 0 0 0 0 0 0 0 0 0 0.25 0"/>
<feBlend mode="normal" in2="BackgroundImageFix" result="effect1_dropShadow"/>
<feBlend mode="normal" in="SourceGraphic" in2="effect1_dropShadow" result="shape"/>
</filter>
</defs>
</svg>
