<svg width="32" height="32" viewBox="0 0 32 32" fill="none" xmlns="http://www.w3.org/2000/svg">
<g clip-path="url(#clip0)">
<path d="M0 0V10.6873H8.89575V12.4788H16V10.6873H32V0H0Z" fill="#CB3837"/>
<path d="M5.31274 1.79199H1.7915V3.5835V8.89624H5.31274V3.5835H7.10425V8.89624H8.89575V3.5835V1.79199H5.31274Z" fill="white"/>
<path d="M10.6873 1.79199V8.52558V8.89624V10.6877H14.2703V8.89624H17.7915V1.79199H10.6873ZM16 7.10473H14.2703V3.5835H16V7.10473Z" fill="white"/>
<path d="M23.1042 1.79199H19.583V3.5835V8.89624H23.1042V3.5835H24.8957V8.89624H26.6873V3.5835H28.4788V8.89624H30.2703V3.5835V1.91554V1.79199H23.1042Z" fill="white"/>
</g>
<defs>
<clipPath id="clip0">
<rect width="32" height="12.5" fill="white"/>
</clipPath>
</defs>
</svg>
