<svg width="32" height="32" viewBox="0 0 32 32" fill="none" xmlns="http://www.w3.org/2000/svg">
<path d="M15.9733 18.6554C17.452 18.6554 18.6507 17.4568 18.6507 15.9781C18.6507 14.4995 17.452 13.3008 15.9733 13.3008C14.4947 13.3008 13.296 14.4995 13.296 15.9781C13.296 17.4568 14.4947 18.6554 15.9733 18.6554Z" fill="#00D8FF"/>
<path d="M15.9733 22.1118C12.2133 22.1118 8.928 21.6691 6.46934 20.8264C4.87467 20.2824 3.52 19.5571 2.55467 18.7304C1.53067 17.8558 0.986671 16.9011 0.986671 15.9784C0.986671 14.2078 2.928 12.4744 6.18667 11.3438C8.85334 10.4158 12.3307 9.89844 15.968 9.89844C19.5413 9.89844 22.9707 10.3998 25.6213 11.3171C27.1733 11.8504 28.48 12.5438 29.408 13.3118C30.416 14.1544 30.9493 15.0771 30.9493 15.9784C30.9493 17.8184 28.7787 19.6798 25.28 20.8371C22.8053 21.6584 19.4987 22.1118 15.9733 22.1118ZM15.9733 11.1784C12.5227 11.1784 9.10934 11.6798 6.61334 12.5491C3.616 13.5944 2.272 15.0238 2.272 15.9784C2.272 16.9704 3.71734 18.5331 6.88534 19.6158C9.21067 20.4104 12.3573 20.8318 15.9733 20.8318C19.3653 20.8318 22.528 20.4051 24.88 19.6211C28.1707 18.5278 29.6747 16.9651 29.6747 15.9784C29.6747 15.4718 29.2907 14.8744 28.592 14.2931C27.7867 13.6211 26.6133 13.0078 25.2107 12.5224C22.688 11.6584 19.408 11.1784 15.9733 11.1784Z" fill="#00D8FF"/>
<path d="M9.89867 29.3224C9.35467 29.3224 8.87467 29.2051 8.46934 28.9704C6.93867 28.0851 6.40534 25.5357 7.05067 22.1491C7.57867 19.3704 8.86934 16.1064 10.688 12.9544C12.4747 9.86107 14.6187 7.14107 16.736 5.30107C17.9733 4.22374 19.2267 3.4344 20.3573 3.0184C21.5893 2.56507 22.656 2.56507 23.4347 3.01307C25.0293 3.9304 25.5573 6.7464 24.8107 10.3517C24.2827 12.9117 23.024 15.9997 21.264 19.0557C19.3867 22.3091 17.36 24.9331 15.4027 26.6451C14.1333 27.7544 12.8267 28.5651 11.632 28.9864C11.008 29.2104 10.4213 29.3224 9.89867 29.3224ZM11.2373 13.2744L11.792 13.5944C10.0693 16.5811 8.79467 19.7864 8.30401 22.3891C7.71201 25.5091 8.28267 27.3864 9.10401 27.8611C9.30667 27.9784 9.57334 28.0424 9.89867 28.0424C10.96 28.0424 12.6293 27.3704 14.56 25.6851C16.4107 24.0691 18.3467 21.5517 20.1547 18.4211C21.8507 15.4824 23.056 12.5277 23.5573 10.1011C24.256 6.70373 23.6533 4.62374 22.7947 4.12774C22.3573 3.87707 21.648 3.90907 20.7947 4.22374C19.808 4.5864 18.6933 5.29574 17.5733 6.27174C15.5627 8.02107 13.5093 10.6237 11.792 13.5997L11.2373 13.2744Z" fill="#00D8FF"/>
<path d="M22.048 29.339C20.5973 29.339 18.7573 28.4643 16.8373 26.811C14.6933 24.9657 12.512 22.219 10.688 19.067C8.896 15.9737 7.616 12.7576 7.07734 10.0003C6.76267 8.38965 6.704 6.91231 6.90667 5.72298C7.13067 4.42698 7.65867 3.50431 8.44267 3.05098C10.032 2.12831 12.736 3.07764 15.488 5.52565C17.44 7.25898 19.488 9.89365 21.2533 12.9443C23.136 16.1977 24.4 19.2643 24.9013 21.8137C25.2267 23.467 25.28 25.003 25.0507 26.251C24.8053 27.579 24.2507 28.523 23.4507 28.987C23.0507 29.2217 22.576 29.339 22.048 29.339ZM11.7973 18.427C13.5253 21.4137 15.6693 24.1177 17.6747 25.8403C20.08 27.9097 21.9893 28.3577 22.816 27.8777C23.6747 27.3817 24.304 25.3497 23.6533 22.0643C23.1733 19.6537 21.9627 16.7203 20.1493 13.5896C18.448 10.651 16.4907 8.12831 14.64 6.48565C12.048 4.18164 9.94667 3.66431 9.088 4.16031C8.65067 4.41098 8.32533 5.04565 8.17067 5.94165C7.99467 6.97631 8.048 8.29898 8.336 9.75498C8.848 12.3736 10.0747 15.451 11.7973 18.427Z" fill="#00D8FF"/>
</svg>
