<svg width="32" height="31" viewBox="0 0 32 31" fill="none" xmlns="http://www.w3.org/2000/svg">
<path d="M22.1726 21.2166C23.3535 21.0944 24.2494 20.0764 24.2087 18.8547C24.168 17.633 23.1499 16.6556 21.9283 16.6556H21.8468C20.5845 16.6964 19.6072 17.7552 19.6479 19.0176C19.6886 19.6284 19.9329 20.1578 20.2994 20.5243C18.9149 23.2527 16.7974 25.2482 13.6211 26.9178C11.4629 28.058 9.22323 28.4653 6.98356 28.1802C5.1511 27.9359 3.72585 27.1214 2.82998 25.7776C1.5269 23.7821 1.40473 21.6238 2.50421 19.4655C3.27792 17.918 4.49956 16.7778 5.27326 16.2077C5.11038 15.6783 4.86605 14.7824 4.74388 14.1308C-1.16071 18.4067 -0.549892 24.1894 1.24185 26.9178C2.58565 28.9539 5.31398 30.2163 8.32736 30.2163C9.14179 30.2163 9.95622 30.1349 10.7706 29.9313C15.983 28.9132 19.9329 25.8183 22.1726 21.2166ZM29.3396 16.167C26.2448 12.5426 21.684 10.5472 16.4716 10.5472H15.8201C15.4536 9.8142 14.6799 9.32553 13.8247 9.32553H13.7433C12.4809 9.36625 11.5036 10.425 11.5443 11.6875C11.5851 12.9091 12.6031 13.8865 13.8247 13.8865H13.9062C14.8021 13.8458 15.5758 13.2756 15.9015 12.5019H16.6345C19.7293 12.5019 22.6613 13.3978 25.3082 15.1489C27.3442 16.4927 28.8102 18.2438 29.6246 20.3614C30.3169 22.0718 30.2762 23.7414 29.5432 25.1667C28.403 27.325 26.4891 28.506 23.9644 28.506C22.3355 28.506 20.7881 28.0173 19.9737 27.6508C19.5257 28.058 18.7113 28.7096 18.1412 29.1168C19.8922 29.9313 21.684 30.3792 23.3943 30.3792C27.3035 30.3792 30.1947 28.2209 31.2942 26.0626C32.4751 23.7007 32.3937 19.6284 29.3396 16.167ZM8.65313 21.9089C8.69385 23.1306 9.71189 24.1079 10.9335 24.1079H11.015C12.2773 24.0672 13.2546 23.0084 13.2139 21.746C13.1732 20.5243 12.1552 19.547 10.9335 19.547H10.8521C10.7706 19.547 10.6485 19.547 10.567 19.5877C8.89746 16.8185 8.2052 13.805 8.44953 10.5472C8.61241 8.10384 9.42684 5.98626 10.8521 4.23517C12.033 2.72843 14.3134 1.99542 15.8608 1.9547C20.1773 1.87325 22.0097 7.24866 22.1319 9.40697C22.6613 9.52914 23.5571 9.8142 24.168 10.0178C23.6793 3.42072 19.6072 0 15.6979 0C12.033 0 8.65313 2.64698 7.30933 6.55638C5.43615 11.7689 6.65779 16.7778 8.93818 20.7279C8.73458 21.013 8.61241 21.4609 8.65313 21.9089Z" fill="#764ABC"/>
</svg>
