<svg width="43" height="32" viewBox="0 0 43 32" fill="none" xmlns="http://www.w3.org/2000/svg">
<path d="M36.7403 18.3924C35.2481 18.4002 33.9557 18.7582 32.8729 19.2928C32.477 18.5021 32.0754 17.8064 32.0084 17.2893C31.9298 16.6858 31.8386 16.3249 31.9337 15.6059C32.0288 14.887 32.445 13.8682 32.4392 13.7916C32.4334 13.7149 32.3461 13.3491 31.4855 13.3423C30.6249 13.3365 29.8884 13.5082 29.8021 13.7353C29.7157 13.9623 29.5498 14.4736 29.447 15.0073C29.2966 15.7873 27.7287 18.571 26.839 20.0263C26.5479 19.4578 26.3005 18.9571 26.2491 18.5613C26.1705 17.9578 26.0793 17.5968 26.1744 16.8779C26.2694 16.1589 26.6857 15.1402 26.6799 15.0635C26.674 14.9869 26.5867 14.6211 25.7261 14.6143C24.8655 14.6085 24.1291 14.7802 24.0427 15.0073C23.9564 15.2343 23.8632 15.765 23.6876 16.2793C23.511 16.7925 21.4279 21.4351 20.8817 22.6392C20.6032 23.2524 20.3616 23.7453 20.1909 24.081C20.1899 24.08 20.1899 24.079 20.1899 24.079C20.1899 24.079 20.1792 24.1013 20.1618 24.1392C20.0153 24.4254 19.9289 24.5836 19.9289 24.5836C19.9289 24.5836 19.9299 24.5855 19.9318 24.5894C19.8154 24.7999 19.6912 24.9949 19.6301 24.9949C19.5874 24.9949 19.501 24.4351 19.6485 23.6667C19.959 22.0561 20.7032 19.5451 20.6964 19.4578C20.6925 19.4131 20.8351 18.9756 20.2103 18.7466C19.6029 18.5244 19.3865 18.895 19.3312 18.896C19.2779 18.897 19.2381 19.027 19.2381 19.027C19.2381 19.027 19.9144 16.2026 17.9477 16.2026C16.7174 16.2026 15.0137 17.5483 14.1744 18.7679C13.6446 19.0571 12.5104 19.6761 11.3083 20.3368C10.8465 20.591 10.3749 20.8501 9.92765 21.0965C9.89757 21.0625 9.86652 21.0296 9.83547 20.9956C7.44965 18.4507 3.04087 16.6509 3.22715 13.2288C3.29507 11.985 3.7278 8.70942 11.7003 4.73725C18.231 1.48306 23.4596 2.37859 24.3629 4.36274C25.6533 7.19875 21.5686 12.4681 14.7866 13.2288C12.2029 13.5189 10.8416 12.5167 10.503 12.1441C10.1469 11.7511 10.0936 11.7337 9.96064 11.8074C9.74427 11.9277 9.88108 12.2741 9.96064 12.4808C10.1634 13.0076 10.9939 13.9419 12.4105 14.4077C13.6573 14.8171 16.6912 15.0412 20.3597 13.6218C24.4696 12.0325 27.6782 7.61014 26.7352 3.91448C25.7766 0.155765 19.5437 -1.08032 13.6446 1.0154C10.1295 2.26313 6.32902 4.22108 3.59585 6.7767C0.346504 9.8155 -0.171606 12.4613 0.0418477 13.5665C0.800577 17.494 6.21356 20.0516 8.38108 21.9464C8.27435 22.0056 8.17345 22.0609 8.08225 22.1114C6.99557 22.6489 2.86913 24.8087 1.8368 27.0897C0.665713 29.6773 2.02308 31.5344 2.92153 31.7847C5.70515 32.5589 8.56155 31.1657 10.0974 28.8759C11.6324 26.5871 11.4451 23.6056 10.7407 22.2453C10.732 22.2288 10.7223 22.2123 10.7135 22.1948C10.9939 22.0289 11.2802 21.8601 11.5635 21.6932C12.1165 21.3682 12.6598 21.0655 13.1304 20.8093C12.8665 21.5312 12.6734 22.3976 12.5735 23.6482C12.4551 25.1172 13.0576 27.016 13.8455 27.763C14.1928 28.092 14.61 28.0997 14.8739 28.0997C15.7908 28.0997 16.209 27.3371 16.6699 26.4348C17.2345 25.3287 17.7362 24.0402 17.7362 24.0402C17.7362 24.0402 17.1074 27.5195 18.8209 27.5195C19.4457 27.5195 20.0735 26.7094 20.3539 26.297C20.3548 26.3019 20.3548 26.3038 20.3548 26.3038C20.3548 26.3038 20.3713 26.2766 20.4034 26.2233C20.4684 26.1243 20.5052 26.0612 20.5052 26.0612C20.5052 26.0612 20.5062 26.0544 20.5081 26.0428C20.7594 25.6072 21.3164 24.6136 22.1508 22.9749C23.2297 20.8578 24.2639 18.2052 24.2639 18.2052C24.2639 18.2052 24.36 18.8533 24.6753 19.9264C24.8606 20.5571 25.2546 21.2547 25.566 21.9241C25.3157 22.2715 25.1624 22.4704 25.1624 22.4704C25.1624 22.4704 25.1634 22.4742 25.1663 22.481C24.9664 22.7469 24.7423 23.0331 24.5075 23.3125C23.6556 24.3264 22.6417 25.4849 22.5059 25.8187C22.3458 26.2126 22.3836 26.5017 22.6931 26.7356C22.9192 26.9053 23.3209 26.9325 23.741 26.9044C24.5065 26.853 25.044 26.6628 25.3099 26.5473C25.7242 26.4008 26.2064 26.1709 26.6585 25.8381C27.4939 25.2239 27.9974 24.3458 27.9489 23.1816C27.9218 22.5402 27.718 21.9047 27.459 21.3051C27.5346 21.1964 27.6103 21.0858 27.687 20.9752C29.0036 19.0503 30.0252 16.9351 30.0252 16.9351C30.0252 16.9351 30.1213 17.5833 30.4366 18.6563C30.5957 19.1987 30.9111 19.7915 31.1944 20.3717C29.9564 21.3779 29.1889 22.547 28.9221 23.3135C28.4292 24.732 28.8154 25.3743 29.5392 25.5208C29.8671 25.5868 30.3309 25.4364 30.6792 25.2889C31.1129 25.1453 31.6339 24.9057 32.121 24.5477C32.9563 23.9335 33.7597 23.0739 33.7112 21.9105C33.6889 21.3808 33.5453 20.8549 33.3503 20.3504C34.4001 19.9128 35.7584 19.6703 37.4893 19.8721C41.2024 20.3058 41.9301 22.6237 41.7914 23.5939C41.6517 24.5642 40.8735 25.0978 40.6125 25.2588C40.3525 25.4199 40.2729 25.4762 40.2943 25.5955C40.3263 25.7692 40.4466 25.7634 40.6688 25.7255C40.9744 25.6741 42.618 24.9367 42.6888 23.1457C42.7771 20.8695 40.5989 18.3721 36.7403 18.3924ZM8.12106 28.0405C6.89079 29.3824 5.17346 29.8888 4.43608 29.4619C3.64048 29.0011 3.95581 27.0257 5.46453 25.6013C6.38432 24.7339 7.5719 23.9345 8.35974 23.4426C8.53923 23.3349 8.80217 23.1767 9.12235 22.9846C9.17571 22.9545 9.20579 22.938 9.20579 22.938L9.20482 22.9361C9.26691 22.8992 9.32998 22.8614 9.39498 22.8216C9.94511 24.8484 9.41245 26.6327 8.12106 28.0405ZM17.0812 21.9503C16.6534 22.9943 15.7569 25.6663 15.2106 25.5228C14.742 25.3995 14.4567 23.3688 15.1175 21.3701C15.4493 20.364 16.1595 19.1618 16.5767 18.6952C17.2481 17.9442 17.9875 17.6987 18.1669 18.0034C18.395 18.3915 17.35 21.2954 17.0812 21.9503ZM24.4832 25.482C24.3018 25.5771 24.1349 25.6363 24.0583 25.5907C24.001 25.5567 24.133 25.4315 24.133 25.4315C24.133 25.4315 25.0586 24.4351 25.4234 23.982C25.6359 23.7181 25.8813 23.4047 26.1491 23.0554C26.1511 23.0904 26.152 23.1253 26.152 23.1592C26.1501 24.3526 24.9975 25.1579 24.4832 25.482ZM30.1853 24.1819C30.0495 24.0858 30.0728 23.7744 30.5181 22.8032C30.6928 22.4219 31.0925 21.7805 31.7853 21.1673C31.8658 21.4196 31.9143 21.6612 31.9133 21.8863C31.9046 23.3882 30.8335 23.949 30.1853 24.1819Z" fill="#F06292"/>
</svg>
