<svg id="spaceship" width="100" height="100" viewBox="0 0 384 384" fill="none" xmlns="http://www.w3.org/2000/svg">
<path d="M155.2 368V348.832L209.6 348.832C218.432 348.832 225.6 341.664 225.6 332.832L225.6 279.72C225.6 270.888 218.432 263.72 209.6 263.72L155.2 263.72V243.336L324 243.336C327.632 243.336 331.152 242.104 333.992 239.832L377.992 204.664C385.592 198.584 385.592 185.744 377.992 179.664L333.992 144.496C331.16 142.232 327.632 140.992 324 140.992L155.2 140.992V120.248H209.6C218.432 120.248 225.6 113.08 225.6 104.248L225.6 51.136C225.6 42.304 218.432 35.136 209.6 35.136L155.2 35.136V16C155.2 7.168 148.032 0 139.2 0L68.8 0C59.968 0 52.8 7.168 52.8 16V87.912L16 87.912C7.16803 87.912 3.05176e-05 95.08 3.05176e-05 103.912L3.05176e-05 280.088C3.05176e-05 288.92 7.16803 296.088 16 296.088H52.8V368C52.8 376.832 59.968 384 68.8 384H139.2C148.032 384 155.2 376.832 155.2 368ZM84.8 352V280.088C84.8 271.256 77.632 264.088 68.8 264.088H32L32 119.912H68.8C77.632 119.912 84.8 112.744 84.8 103.912V32L123.2 32V51.168C123.2 60 130.368 67.168 139.2 67.168H193.6V88.28H139.2C130.368 88.28 123.2 95.448 123.2 104.28V157.024C123.2 165.856 130.368 173.024 139.2 173.024L318.392 173.024L342.376 192.192L318.392 211.36L139.2 211.36C130.368 211.36 123.2 218.528 123.2 227.36V279.744C123.2 288.576 130.368 295.744 139.2 295.744L193.6 295.744L193.6 316.856L139.2 316.856C130.368 316.856 123.2 324.024 123.2 332.856V352H84.8Z" fill="black"/>
<path d="M84.8 227.296L84.8 156.968C84.8 148.136 77.632 140.968 68.8 140.968C59.968 140.968 52.8 148.136 52.8 156.968L52.8 227.296C52.8 236.128 59.968 243.296 68.8 243.296C77.632 243.296 84.8 236.128 84.8 227.296Z" fill="black"/>
</svg>
