<?xml version="1.0" encoding="UTF-8" standalone="no"?>
<svg
   xmlns:dc="http://purl.org/dc/elements/1.1/"
   xmlns:cc="http://creativecommons.org/ns#"
   xmlns:rdf="http://www.w3.org/1999/02/22-rdf-syntax-ns#"
   xmlns:svg="http://www.w3.org/2000/svg"
   xmlns="http://www.w3.org/2000/svg"
   xmlns:sodipodi="http://sodipodi.sourceforge.net/DTD/sodipodi-0.dtd"
   xmlns:inkscape="http://www.inkscape.org/namespaces/inkscape"
   inkscape:version="1.0 (4035a4fb49, 2020-05-01)"
   sodipodi:docname="Z-resize.svg"
   version="1.1"
   fill="none"
   viewBox="0 0 31.218801 31.171875"
   height="36"
   width="36"
   id="icon">
  <metadata
     id="metadata26">
    <rdf:RDF>
      <cc:Work
         rdf:about="">
        <dc:format>image/svg+xml</dc:format>
        <dc:type
           rdf:resource="http://purl.org/dc/dcmitype/StillImage" />
        <dc:title></dc:title>
      </cc:Work>
    </rdf:RDF>
  </metadata>
  <defs
     id="defs24" />
  <sodipodi:namedview
     inkscape:current-layer="icon-z"
     inkscape:window-maximized="0"
     inkscape:window-y="5"
     inkscape:window-x="2880"
     inkscape:cy="22.268136"
     inkscape:cx="18"
     inkscape:zoom="28"
     fit-margin-bottom="0"
     fit-margin-right="0"
     fit-margin-left="0"
     fit-margin-top="0"
     showgrid="false"
     id="namedview22"
     inkscape:window-height="2058"
     inkscape:window-width="1905"
     inkscape:pageshadow="2"
     inkscape:pageopacity="0"
     guidetolerance="10"
     gridtolerance="10"
     objecttolerance="10"
     borderopacity="1"
     bordercolor="#666666"
     pagecolor="#ffffff" />
  <path
     id="path19"
     fill="white"
     d="m 31.2188,28.078175 v 3.0937 h -3.0782 v -3.0937 z m -3.0782,0 v -3.0626 h 3.0782 v 3.0626 z m 0,-3.0626 v -3.1406 h 3.0782 v 3.1406 z m 0,-9.4062 v -3.125 h 3.0782 v 3.125 z m 0,-3.125 v -3.14062 h 3.0782 v 3.14062 z m 0,-3.14062 v -3.14063 h 3.0782 v 3.14063 z m 0,-3.14063 v -3.0625 h 3.0782 v 3.0625 z m -3.125,-3.0625 V 0 h 3.125 v 3.140625 z m 3.125,24.93755 v 3.0937 h -3.125 v -3.0937 z m -3.125,0 v -3.0626 h 3.125 v 3.0626 z m 0,-3.0626 v -3.1406 h 3.125 v 3.1406 z m 0,-3.1406 v -3.125 h 3.125 v 3.125 z m 0,-3.125 v -3.1406 h 3.125 v 3.1406 z m 0,-3.1406 v -3.125 h 3.125 v 3.125 z m 0,-3.125 v -3.14062 h 3.125 v 3.14062 z m 0,-3.14062 v -3.14063 h 3.125 v 3.14063 z m 0,-3.14063 v -3.0625 h 3.125 v 3.0625 z M 21.875,3.140625 V 0 h 3.1406 v 3.140625 z m 3.1406,24.93755 v 3.0937 H 21.875 v -3.0937 z m -3.1406,0 v -3.0626 h 3.1406 v 3.0626 z m 0,-6.2032 v -3.125 h 3.1406 v 3.125 z m 0,-3.125 v -3.1406 h 3.1406 v 3.1406 z m 0,-3.1406 v -3.125 h 3.1406 v 3.125 z m 0,-3.125 v -3.14062 h 3.1406 v 3.14062 z M 18.75,3.140625 V 0 h 3.125 v 3.140625 z m 3.125,24.93755 v 3.0937 H 18.75 v -3.0937 z m -3.125,0 v -3.0626 h 3.125 v 3.0626 z m 0,-6.2032 v -3.125 h 3.125 v 3.125 z m 0,-3.125 v -3.1406 h 3.125 v 3.1406 z m 0,-3.1406 v -3.125 h 3.125 v 3.125 z M 15.6094,3.140625 V 0 H 18.75 v 3.140625 z m 3.1406,24.93755 v 3.0937 h -3.1406 v -3.0937 z m -3.1406,0 v -3.0626 H 18.75 v 3.0626 z m 0,-6.2032 v -3.125 H 18.75 v 3.125 z m 0,-3.125 v -3.1406 H 18.75 v 3.1406 z M 12.4688,3.140625 V 0 h 3.1406 v 3.140625 z m 3.1406,24.93755 v 3.0937 h -3.1406 v -3.0937 z m -3.1406,0 v -3.0626 h 3.1406 v 3.0626 z m 0,-6.2032 v -3.125 h 3.1406 v 3.125 z m 0,-12.53122 v -3.14063 h 3.1406 v 3.14063 z M 9.40625,3.140625 V 0 h 3.06255 v 3.140625 z m 3.06255,24.93755 v 3.0937 H 9.40625 v -3.0937 z m -3.06255,0 v -3.0626 h 3.06255 v 3.0626 z m 0,-15.5938 v -3.14062 h 3.06255 v 3.14062 z m 0,-3.14062 v -3.14063 h 3.06255 v 3.14063 z M 6.26562,3.140625 V 0 h 3.14063 v 3.140625 z m 3.14063,24.93755 v 3.0937 H 6.26562 v -3.0937 z m -3.14063,0 v -3.0626 h 3.14063 v 3.0626 z m 0,-12.4688 v -3.125 h 3.14063 v 3.125 z m 0,-3.125 v -3.14062 h 3.14063 v 3.14062 z m 0,-3.14062 v -3.14063 h 3.14063 v 3.14063 z m -3.125,-6.20313 V 0 h 3.125 v 3.140625 z m 3.125,24.93755 v 3.0937 h -3.125 v -3.0937 z m -3.125,0 v -3.0626 h 3.125 v 3.0626 z m 0,-9.3282 v -3.1406 h 3.125 v 3.1406 z m 0,-3.1406 v -3.125 h 3.125 v 3.125 z m 0,-6.26562 v -3.14063 h 3.125 v 3.14063 z M 0,3.140625 V 0 h 3.14062 v 3.140625 z m 0,24.93755 v -3.0626 h 3.14062 v 3.0626 z m 0,-3.0626 v -3.1406 h 3.14062 v 3.1406 z m 0,-3.1406 v -3.125 h 3.14062 v 3.125 z m 0,-3.125 v -3.1406 h 3.14062 v 3.1406 z m 0,-9.40622 v -3.14063 h 3.14062 v 3.14063 z m 0,-3.14063 v -3.0625 h 3.14062 v 3.0625 z" />
</svg>
