<svg width="32" height="32" viewBox="0 0 32 32" fill="none" xmlns="http://www.w3.org/2000/svg">
<path d="M31.2188 28.0938V31.1875H28.1406V28.0938H31.2188ZM28.1406 28.0938V25.0312H31.2188V28.0938H28.1406ZM28.1406 25.0312V21.8906H31.2188V25.0312H28.1406ZM28.1406 15.625V12.5H31.2188V15.625H28.1406ZM28.1406 12.5V9.35938H31.2188V12.5H28.1406ZM28.1406 9.35938V6.21875H31.2188V9.35938H28.1406ZM28.1406 6.21875V3.15625H31.2188V6.21875H28.1406ZM25.0156 3.15625V0.015625H28.1406V3.15625H25.0156ZM28.1406 28.0938V31.1875H25.0156V28.0938H28.1406ZM25.0156 28.0938V25.0312H28.1406V28.0938H25.0156ZM25.0156 25.0312V21.8906H28.1406V25.0312H25.0156ZM25.0156 21.8906V18.7656H28.1406V21.8906H25.0156ZM25.0156 18.7656V15.625H28.1406V18.7656H25.0156ZM25.0156 15.625V12.5H28.1406V15.625H25.0156ZM25.0156 12.5V9.35938H28.1406V12.5H25.0156ZM25.0156 9.35938V6.21875H28.1406V9.35938H25.0156ZM25.0156 6.21875V3.15625H28.1406V6.21875H25.0156ZM21.875 3.15625V0.015625H25.0156V3.15625H21.875ZM25.0156 28.0938V31.1875H21.875V28.0938H25.0156ZM21.875 28.0938V25.0312H25.0156V28.0938H21.875ZM21.875 21.8906V18.7656H25.0156V21.8906H21.875ZM21.875 18.7656V15.625H25.0156V18.7656H21.875ZM21.875 15.625V12.5H25.0156V15.625H21.875ZM21.875 12.5V9.35938H25.0156V12.5H21.875ZM18.75 3.15625V0.015625H21.875V3.15625H18.75ZM21.875 28.0938V31.1875H18.75V28.0938H21.875ZM18.75 28.0938V25.0312H21.875V28.0938H18.75ZM18.75 21.8906V18.7656H21.875V21.8906H18.75ZM18.75 18.7656V15.625H21.875V18.7656H18.75ZM18.75 15.625V12.5H21.875V15.625H18.75ZM15.6094 3.15625V0.015625H18.75V3.15625H15.6094ZM18.75 28.0938V31.1875H15.6094V28.0938H18.75ZM15.6094 28.0938V25.0312H18.75V28.0938H15.6094ZM15.6094 21.8906V18.7656H18.75V21.8906H15.6094ZM15.6094 18.7656V15.625H18.75V18.7656H15.6094ZM12.4688 3.15625V0.015625H15.6094V3.15625H12.4688ZM15.6094 28.0938V31.1875H12.4688V28.0938H15.6094ZM12.4688 28.0938V25.0312H15.6094V28.0938H12.4688ZM12.4688 21.8906V18.7656H15.6094V21.8906H12.4688ZM12.4688 9.35938V6.21875H15.6094V9.35938H12.4688ZM9.40625 3.15625V0.015625H12.4688V3.15625H9.40625ZM12.4688 28.0938V31.1875H9.40625V28.0938H12.4688ZM9.40625 28.0938V25.0312H12.4688V28.0938H9.40625ZM9.40625 12.5V9.35938H12.4688V12.5H9.40625ZM9.40625 9.35938V6.21875H12.4688V9.35938H9.40625ZM6.26562 3.15625V0.015625H9.40625V3.15625H6.26562ZM9.40625 28.0938V31.1875H6.26562V28.0938H9.40625ZM6.26562 28.0938V25.0312H9.40625V28.0938H6.26562ZM6.26562 15.625V12.5H9.40625V15.625H6.26562ZM6.26562 12.5V9.35938H9.40625V12.5H6.26562ZM6.26562 9.35938V6.21875H9.40625V9.35938H6.26562ZM3.14062 3.15625V0.015625H6.26562V3.15625H3.14062ZM6.26562 28.0938V31.1875H3.14062V28.0938H6.26562ZM3.14062 28.0938V25.0312H6.26562V28.0938H3.14062ZM3.14062 18.7656V15.625H6.26562V18.7656H3.14062ZM3.14062 15.625V12.5H6.26562V15.625H3.14062ZM3.14062 9.35938V6.21875H6.26562V9.35938H3.14062ZM0 3.15625V0.015625H3.14062V3.15625H0ZM0 28.0938V25.0312H3.14062V28.0938H0ZM0 25.0312V21.8906H3.14062V25.0312H0ZM0 21.8906V18.7656H3.14062V21.8906H0ZM0 18.7656V15.625H3.14062V18.7656H0ZM0 9.35938V6.21875H3.14062V9.35938H0ZM0 6.21875V3.15625H3.14062V6.21875H0Z" fill="black"/>
</svg>
