<svg id="icon-zt" width="554" height="59" viewBox="0 0 554 59" fill="white" xmlns="http://www.w3.org/2000/svg">
<path d="M59.5008 52.8008V58.6016H53.7293V52.8008H59.5008ZM53.7293 52.8008V47.0586H59.5008V52.8008H53.7293ZM53.7293 47.0586V41.1699H59.5008V47.0586H53.7293ZM53.7293 29.4219V23.5625H59.5008V29.4219H53.7293ZM53.7293 23.5625V17.6738H59.5008V23.5625H53.7293ZM53.7293 17.6738V11.7852H59.5008V17.6738H53.7293ZM53.7293 11.7852V6.04297H59.5008V11.7852H53.7293ZM47.8699 6.04297V0.154297H53.7293V6.04297H47.8699ZM53.7293 52.8008V58.6016H47.8699V52.8008H53.7293ZM47.8699 52.8008V47.0586H53.7293V52.8008H47.8699ZM47.8699 47.0586V41.1699H53.7293V47.0586H47.8699ZM47.8699 41.1699V35.3105H53.7293V41.1699H47.8699ZM47.8699 35.3105V29.4219H53.7293V35.3105H47.8699ZM47.8699 29.4219V23.5625H53.7293V29.4219H47.8699ZM47.8699 23.5625V17.6738H53.7293V23.5625H47.8699ZM47.8699 17.6738V11.7852H53.7293V17.6738H47.8699ZM47.8699 11.7852V6.04297H53.7293V11.7852H47.8699ZM41.9813 6.04297V0.154297H47.8699V6.04297H41.9813ZM47.8699 52.8008V58.6016H41.9813V52.8008H47.8699ZM41.9813 52.8008V47.0586H47.8699V52.8008H41.9813ZM41.9813 41.1699V35.3105H47.8699V41.1699H41.9813ZM41.9813 35.3105V29.4219H47.8699V35.3105H41.9813ZM41.9813 29.4219V23.5625H47.8699V29.4219H41.9813ZM41.9813 23.5625V17.6738H47.8699V23.5625H41.9813ZM36.1219 6.04297V0.154297H41.9813V6.04297H36.1219ZM41.9813 52.8008V58.6016H36.1219V52.8008H41.9813ZM36.1219 52.8008V47.0586H41.9813V52.8008H36.1219ZM36.1219 41.1699V35.3105H41.9813V41.1699H36.1219ZM36.1219 35.3105V29.4219H41.9813V35.3105H36.1219ZM36.1219 29.4219V23.5625H41.9813V29.4219H36.1219ZM30.2332 6.04297V0.154297H36.1219V6.04297H30.2332ZM36.1219 52.8008V58.6016H30.2332V52.8008H36.1219ZM30.2332 52.8008V47.0586H36.1219V52.8008H30.2332ZM30.2332 41.1699V35.3105H36.1219V41.1699H30.2332ZM30.2332 35.3105V29.4219H36.1219V35.3105H30.2332ZM24.3445 6.04297V0.154297H30.2332V6.04297H24.3445ZM30.2332 52.8008V58.6016H24.3445V52.8008H30.2332ZM24.3445 52.8008V47.0586H30.2332V52.8008H24.3445ZM24.3445 41.1699V35.3105H30.2332V41.1699H24.3445ZM24.3445 17.6738V11.7852H30.2332V17.6738H24.3445ZM18.6024 6.04297V0.154297H24.3445V6.04297H18.6024ZM24.3445 52.8008V58.6016H18.6024V52.8008H24.3445ZM18.6024 52.8008V47.0586H24.3445V52.8008H18.6024ZM18.6024 23.5625V17.6738H24.3445V23.5625H18.6024ZM18.6024 17.6738V11.7852H24.3445V17.6738H18.6024ZM12.7137 6.04297V0.154297H18.6024V6.04297H12.7137ZM18.6024 52.8008V58.6016H12.7137V52.8008H18.6024ZM12.7137 52.8008V47.0586H18.6024V52.8008H12.7137ZM12.7137 29.4219V23.5625H18.6024V29.4219H12.7137ZM12.7137 23.5625V17.6738H18.6024V23.5625H12.7137ZM12.7137 17.6738V11.7852H18.6024V17.6738H12.7137ZM6.85431 6.04297V0.154297H12.7137V6.04297H6.85431ZM12.7137 52.8008V58.6016H6.85431V52.8008H12.7137ZM6.85431 52.8008V47.0586H12.7137V52.8008H6.85431ZM6.85431 35.3105V29.4219H12.7137V35.3105H6.85431ZM6.85431 29.4219V23.5625H12.7137V29.4219H6.85431ZM6.85431 17.6738V11.7852H12.7137V17.6738H6.85431ZM0.965637 6.04297V0.154297H6.85431V6.04297H0.965637ZM0.965637 52.8008V47.0586H6.85431V52.8008H0.965637ZM0.965637 47.0586V41.1699H6.85431V47.0586H0.965637ZM0.965637 41.1699V35.3105H6.85431V41.1699H0.965637ZM0.965637 35.3105V29.4219H6.85431V35.3105H0.965637ZM0.965637 17.6738V11.7852H6.85431V17.6738H0.965637ZM0.965637 11.7852V6.04297H6.85431V11.7852H0.965637ZM102.322 52.8008V47.0586H108.094V52.8008H102.322ZM102.322 47.0586V41.1699H108.094V47.0586H102.322ZM102.322 41.1699V35.3105H108.094V41.1699H102.322ZM102.322 35.3105V29.4219H108.094V35.3105H102.322ZM102.322 29.4219V23.5625H108.094V29.4219H102.322ZM102.322 23.5625V17.6738H108.094V23.5625H102.322ZM102.322 17.6738V11.7852H108.094V17.6738H102.322ZM102.322 11.7852V6.04297H108.094V11.7852H102.322ZM96.4629 6.04297V0.154297H102.322V6.04297H96.4629ZM102.322 52.8008V58.6016H96.4629V52.8008H102.322ZM96.4629 52.8008V47.0586H102.322V52.8008H96.4629ZM96.4629 47.0586V41.1699H102.322V47.0586H96.4629ZM96.4629 41.1699V35.3105H102.322V41.1699H96.4629ZM96.4629 35.3105V29.4219H102.322V35.3105H96.4629ZM96.4629 29.4219V23.5625H102.322V29.4219H96.4629ZM96.4629 23.5625V17.6738H102.322V23.5625H96.4629ZM96.4629 17.6738V11.7852H102.322V17.6738H96.4629ZM96.4629 11.7852V6.04297H102.322V11.7852H96.4629ZM90.5742 6.04297V0.154297H96.4629V6.04297H90.5742ZM96.4629 52.8008V58.6016H90.5742V52.8008H96.4629ZM90.5742 52.8008V47.0586H96.4629V52.8008H90.5742ZM90.5742 47.0586V41.1699H96.4629V47.0586H90.5742ZM84.7149 6.04297V0.154297H90.5742V6.04297H84.7149ZM90.5742 52.8008V58.6016H84.7149V52.8008H90.5742ZM84.7149 52.8008V47.0586H90.5742V52.8008H84.7149ZM78.8262 6.04297V0.154297H84.7149V6.04297H78.8262ZM84.7149 52.8008V58.6016H78.8262V52.8008H84.7149ZM78.8262 52.8008V47.0586H84.7149V52.8008H78.8262ZM78.8262 41.1699V35.3105H84.7149V41.1699H78.8262ZM78.8262 35.3105V29.4219H84.7149V35.3105H78.8262ZM78.8262 29.4219V23.5625H84.7149V29.4219H78.8262ZM78.8262 23.5625V17.6738H84.7149V23.5625H78.8262ZM78.8262 17.6738V11.7852H84.7149V17.6738H78.8262ZM78.8262 11.7852V6.04297H84.7149V11.7852H78.8262ZM78.8262 52.8008V58.6016H72.9375V52.8008H78.8262ZM72.9375 52.8008V47.0586H78.8262V52.8008H72.9375ZM72.9375 41.1699V35.3105H78.8262V41.1699H72.9375ZM72.9375 35.3105V29.4219H78.8262V35.3105H72.9375ZM72.9375 29.4219V23.5625H78.8262V29.4219H72.9375ZM72.9375 52.8008V58.6016H67.1953V52.8008H72.9375ZM67.1953 52.8008V47.0586H72.9375V52.8008H67.1953ZM67.1953 41.1699V35.3105H72.9375V41.1699H67.1953ZM67.1953 35.3105V29.4219H72.9375V35.3105H67.1953ZM67.1953 29.4219V23.5625H72.9375V29.4219H67.1953ZM67.1953 52.8008V58.6016H61.3067V52.8008H67.1953ZM61.3067 52.8008V47.0586H67.1953V52.8008H61.3067ZM61.3067 29.4219V23.5625H67.1953V29.4219H61.3067ZM55.4473 52.8008V47.0586H61.3067V52.8008H55.4473ZM55.4473 47.0586V41.1699H61.3067V47.0586H55.4473ZM55.4473 29.4219V23.5625H61.3067V29.4219H55.4473ZM49.5586 47.0586V41.1699H55.4473V47.0586H49.5586ZM49.5586 41.1699V35.3105H55.4473V41.1699H49.5586ZM49.5586 35.3105V29.4219H55.4473V35.3105H49.5586ZM49.5586 29.4219V23.5625H55.4473V29.4219H49.5586ZM156.687 52.8008V58.6016H150.915V52.8008H156.687ZM150.915 52.8008V47.0586H156.687V52.8008H150.915ZM150.915 47.0586V41.1699H156.687V47.0586H150.915ZM150.915 41.1699V35.3105H156.687V41.1699H150.915ZM150.915 35.3105V29.4219H156.687V35.3105H150.915ZM150.915 29.4219V23.5625H156.687V29.4219H150.915ZM150.915 23.5625V17.6738H156.687V23.5625H150.915ZM150.915 17.6738V11.7852H156.687V17.6738H150.915ZM150.915 52.8008V58.6016H145.056V52.8008H150.915ZM145.056 52.8008V47.0586H150.915V52.8008H145.056ZM145.056 47.0586V41.1699H150.915V47.0586H145.056ZM145.056 41.1699V35.3105H150.915V41.1699H145.056ZM145.056 35.3105V29.4219H150.915V35.3105H145.056ZM145.056 29.4219V23.5625H150.915V29.4219H145.056ZM145.056 23.5625V17.6738H150.915V23.5625H145.056ZM145.056 17.6738V11.7852H150.915V17.6738H145.056ZM145.056 11.7852V6.04297H150.915V11.7852H145.056ZM139.167 6.04297V0.154297H145.056V6.04297H139.167ZM145.056 52.8008V58.6016H139.167V52.8008H145.056ZM139.167 52.8008V47.0586H145.056V52.8008H139.167ZM139.167 11.7852V6.04297H145.056V11.7852H139.167ZM133.308 6.04297V0.154297H139.167V6.04297H133.308ZM139.167 52.8008V58.6016H133.308V52.8008H139.167ZM133.308 52.8008V47.0586H139.167V52.8008H133.308ZM127.419 6.04297V0.154297H133.308V6.04297H127.419ZM127.419 52.8008V47.0586H133.308V52.8008H127.419ZM127.419 47.0586V41.1699H133.308V47.0586H127.419ZM127.419 41.1699V35.3105H133.308V41.1699H127.419ZM127.419 29.4219V23.5625H133.308V29.4219H127.419ZM127.419 23.5625V17.6738H133.308V23.5625H127.419ZM127.419 17.6738V11.7852H133.308V17.6738H127.419ZM121.53 6.04297V0.154297H127.419V6.04297H121.53ZM127.419 52.8008V58.6016H121.53V52.8008H127.419ZM121.53 52.8008V47.0586H127.419V52.8008H121.53ZM121.53 47.0586V41.1699H127.419V47.0586H121.53ZM121.53 41.1699V35.3105H127.419V41.1699H121.53ZM121.53 29.4219V23.5625H127.419V29.4219H121.53ZM121.53 23.5625V17.6738H127.419V23.5625H121.53ZM121.53 17.6738V11.7852H127.419V17.6738H121.53ZM115.788 6.04297V0.154297H121.53V6.04297H115.788ZM121.53 52.8008V58.6016H115.788V52.8008H121.53ZM115.788 52.8008V47.0586H121.53V52.8008H115.788ZM115.788 47.0586V41.1699H121.53V47.0586H115.788ZM115.788 41.1699V35.3105H121.53V41.1699H115.788ZM115.788 29.4219V23.5625H121.53V29.4219H115.788ZM115.788 23.5625V17.6738H121.53V23.5625H115.788ZM115.788 17.6738V11.7852H121.53V17.6738H115.788ZM109.9 6.04297V0.154297H115.788V6.04297H109.9ZM115.788 52.8008V58.6016H109.9V52.8008H115.788ZM109.9 52.8008V47.0586H115.788V52.8008H109.9ZM104.04 6.04297V0.154297H109.9V6.04297H104.04ZM109.9 52.8008V58.6016H104.04V52.8008H109.9ZM104.04 52.8008V47.0586H109.9V52.8008H104.04ZM104.04 11.7852V6.04297H109.9V11.7852H104.04ZM98.1516 52.8008V47.0586H104.04V52.8008H98.1516ZM98.1516 47.0586V41.1699H104.04V47.0586H98.1516ZM98.1516 41.1699V35.3105H104.04V41.1699H98.1516ZM98.1516 35.3105V29.4219H104.04V35.3105H98.1516ZM98.1516 29.4219V23.5625H104.04V29.4219H98.1516ZM98.1516 23.5625V17.6738H104.04V23.5625H98.1516ZM98.1516 17.6738V11.7852H104.04V17.6738H98.1516ZM98.1516 11.7852V6.04297H104.04V11.7852H98.1516ZM209.48 52.8008V58.6016H203.708V52.8008H209.48ZM203.708 52.8008V47.0586H209.48V52.8008H203.708ZM203.708 47.0586V41.1699H209.48V47.0586H203.708ZM203.708 23.5625V17.6738H209.48V23.5625H203.708ZM203.708 17.6738V11.7852H209.48V17.6738H203.708ZM203.708 11.7852V6.04297H209.48V11.7852H203.708ZM197.849 6.04297V0.154297H203.708V6.04297H197.849ZM203.708 52.8008V58.6016H197.849V52.8008H203.708ZM197.849 52.8008V47.0586H203.708V52.8008H197.849ZM197.849 47.0586V41.1699H203.708V47.0586H197.849ZM197.849 41.1699V35.3105H203.708V41.1699H197.849ZM197.849 29.4219V23.5625H203.708V29.4219H197.849ZM197.849 23.5625V17.6738H203.708V23.5625H197.849ZM197.849 17.6738V11.7852H203.708V17.6738H197.849ZM197.849 11.7852V6.04297H203.708V11.7852H197.849ZM191.96 6.04297V0.154297H197.849V6.04297H191.96ZM197.849 52.8008V58.6016H191.96V52.8008H197.849ZM191.96 52.8008V47.0586H197.849V52.8008H191.96ZM191.96 41.1699V35.3105H197.849V41.1699H191.96ZM191.96 35.3105V29.4219H197.849V35.3105H191.96ZM191.96 29.4219V23.5625H197.849V29.4219H191.96ZM191.96 23.5625V17.6738H197.849V23.5625H191.96ZM191.96 17.6738V11.7852H197.849V17.6738H191.96ZM186.101 6.04297V0.154297H191.96V6.04297H186.101ZM191.96 52.8008V58.6016H186.101V52.8008H191.96ZM186.101 52.8008V47.0586H191.96V52.8008H186.101ZM186.101 35.3105V29.4219H191.96V35.3105H186.101ZM186.101 29.4219V23.5625H191.96V29.4219H186.101ZM186.101 23.5625V17.6738H191.96V23.5625H186.101ZM180.212 6.04297V0.154297H186.101V6.04297H180.212ZM180.212 52.8008V47.0586H186.101V52.8008H180.212ZM180.212 47.0586V41.1699H186.101V47.0586H180.212ZM180.212 29.4219V23.5625H186.101V29.4219H180.212ZM180.212 11.7852V6.04297H186.101V11.7852H180.212ZM180.212 52.8008V58.6016H174.323V52.8008H180.212ZM174.323 52.8008V47.0586H180.212V52.8008H174.323ZM174.323 47.0586V41.1699H180.212V47.0586H174.323ZM174.323 41.1699V35.3105H180.212V41.1699H174.323ZM174.323 17.6738V11.7852H180.212V17.6738H174.323ZM174.323 11.7852V6.04297H180.212V11.7852H174.323ZM168.581 6.04297V0.154297H174.323V6.04297H168.581ZM174.323 52.8008V58.6016H168.581V52.8008H174.323ZM168.581 52.8008V47.0586H174.323V52.8008H168.581ZM168.581 47.0586V41.1699H174.323V47.0586H168.581ZM168.581 41.1699V35.3105H174.323V41.1699H168.581ZM168.581 35.3105V29.4219H174.323V35.3105H168.581ZM168.581 23.5625V17.6738H174.323V23.5625H168.581ZM168.581 17.6738V11.7852H174.323V17.6738H168.581ZM168.581 11.7852V6.04297H174.323V11.7852H168.581ZM162.693 6.04297V0.154297H168.581V6.04297H162.693ZM168.581 52.8008V58.6016H162.693V52.8008H168.581ZM162.693 52.8008V47.0586H168.581V52.8008H162.693ZM156.833 6.04297V0.154297H162.693V6.04297H156.833ZM162.693 52.8008V58.6016H156.833V52.8008H162.693ZM156.833 52.8008V47.0586H162.693V52.8008H156.833ZM150.945 6.04297V0.154297H156.833V6.04297H150.945ZM150.945 52.8008V47.0586H156.833V52.8008H150.945ZM150.945 47.0586V41.1699H156.833V47.0586H150.945ZM150.945 41.1699V35.3105H156.833V41.1699H150.945ZM150.945 35.3105V29.4219H156.833V35.3105H150.945ZM150.945 29.4219V23.5625H156.833V29.4219H150.945ZM150.945 23.5625V17.6738H156.833V23.5625H150.945ZM150.945 17.6738V11.7852H156.833V17.6738H150.945ZM150.945 11.7852V6.04297H156.833V11.7852H150.945ZM284.04 23.5625V17.6738H289.9V23.5625H284.04ZM284.04 17.6738V11.7852H289.9V17.6738H284.04ZM284.04 11.7852V6.04297H289.9V11.7852H284.04ZM278.152 6.04297V0.154297H284.04V6.04297H278.152ZM278.152 23.5625V17.6738H284.04V23.5625H278.152ZM278.152 17.6738V11.7852H284.04V17.6738H278.152ZM278.152 11.7852V6.04297H284.04V11.7852H278.152ZM272.292 6.04297V0.154297H278.152V6.04297H272.292ZM278.152 52.8008V58.6016H272.292V52.8008H278.152ZM272.292 52.8008V47.0586H278.152V52.8008H272.292ZM272.292 47.0586V41.1699H278.152V47.0586H272.292ZM272.292 41.1699V35.3105H278.152V41.1699H272.292ZM272.292 35.3105V29.4219H278.152V35.3105H272.292ZM272.292 29.4219V23.5625H278.152V29.4219H272.292ZM272.292 23.5625V17.6738H278.152V23.5625H272.292ZM272.292 17.6738V11.7852H278.152V17.6738H272.292ZM266.404 6.04297V0.154297H272.292V6.04297H266.404ZM272.292 52.8008V58.6016H266.404V52.8008H272.292ZM266.404 52.8008V47.0586H272.292V52.8008H266.404ZM266.404 47.0586V41.1699H272.292V47.0586H266.404ZM266.404 41.1699V35.3105H272.292V41.1699H266.404ZM266.404 35.3105V29.4219H272.292V35.3105H266.404ZM266.404 29.4219V23.5625H272.292V29.4219H266.404ZM266.404 23.5625V17.6738H272.292V23.5625H266.404ZM266.404 17.6738V11.7852H272.292V17.6738H266.404ZM260.515 6.04297V0.154297H266.404V6.04297H260.515ZM266.404 52.8008V58.6016H260.515V52.8008H266.404ZM260.515 52.8008V47.0586H266.404V52.8008H260.515ZM254.773 6.04297V0.154297H260.515V6.04297H254.773ZM260.515 52.8008V58.6016H254.773V52.8008H260.515ZM254.773 52.8008V47.0586H260.515V52.8008H254.773ZM248.884 6.04297V0.154297H254.773V6.04297H248.884ZM248.884 52.8008V47.0586H254.773V52.8008H248.884ZM248.884 47.0586V41.1699H254.773V47.0586H248.884ZM248.884 41.1699V35.3105H254.773V41.1699H248.884ZM248.884 35.3105V29.4219H254.773V35.3105H248.884ZM248.884 29.4219V23.5625H254.773V29.4219H248.884ZM248.884 23.5625V17.6738H254.773V23.5625H248.884ZM248.884 17.6738V11.7852H254.773V17.6738H248.884ZM243.025 6.04297V0.154297H248.884V6.04297H243.025ZM243.025 17.6738V11.7852H248.884V17.6738H243.025ZM237.136 6.04297V0.154297H243.025V6.04297H237.136ZM237.136 17.6738V11.7852H243.025V17.6738H237.136ZM237.136 11.7852V6.04297H243.025V11.7852H237.136ZM342.605 52.8008V58.6016H336.833V52.8008H342.605ZM336.833 52.8008V47.0586H342.605V52.8008H336.833ZM336.833 47.0586V41.1699H342.605V47.0586H336.833ZM336.833 41.1699V35.3105H342.605V41.1699H336.833ZM336.833 35.3105V29.4219H342.605V35.3105H336.833ZM336.833 29.4219V23.5625H342.605V29.4219H336.833ZM336.833 23.5625V17.6738H342.605V23.5625H336.833ZM336.833 17.6738V11.7852H342.605V17.6738H336.833ZM336.833 11.7852V6.04297H342.605V11.7852H336.833ZM330.974 6.04297V0.154297H336.833V6.04297H330.974ZM336.833 52.8008V58.6016H330.974V52.8008H336.833ZM330.974 52.8008V47.0586H336.833V52.8008H330.974ZM330.974 47.0586V41.1699H336.833V47.0586H330.974ZM330.974 41.1699V35.3105H336.833V41.1699H330.974ZM330.974 35.3105V29.4219H336.833V35.3105H330.974ZM330.974 29.4219V23.5625H336.833V29.4219H330.974ZM330.974 23.5625V17.6738H336.833V23.5625H330.974ZM330.974 17.6738V11.7852H336.833V17.6738H330.974ZM330.974 11.7852V6.04297H336.833V11.7852H330.974ZM325.085 6.04297V0.154297H330.974V6.04297H325.085ZM330.974 52.8008V58.6016H325.085V52.8008H330.974ZM325.085 52.8008V47.0586H330.974V52.8008H325.085ZM319.226 6.04297V0.154297H325.085V6.04297H319.226ZM325.085 52.8008V58.6016H319.226V52.8008H325.085ZM319.226 52.8008V47.0586H325.085V52.8008H319.226ZM313.337 6.04297V0.154297H319.226V6.04297H313.337ZM313.337 52.8008V47.0586H319.226V52.8008H313.337ZM313.337 47.0586V41.1699H319.226V47.0586H313.337ZM313.337 41.1699V35.3105H319.226V41.1699H313.337ZM313.337 35.3105V29.4219H319.226V35.3105H313.337ZM313.337 23.5625V17.6738H319.226V23.5625H313.337ZM313.337 17.6738V11.7852H319.226V17.6738H313.337ZM313.337 11.7852V6.04297H319.226V11.7852H313.337ZM313.337 52.8008V58.6016H307.448V52.8008H313.337ZM307.448 52.8008V47.0586H313.337V52.8008H307.448ZM307.448 47.0586V41.1699H313.337V47.0586H307.448ZM307.448 41.1699V35.3105H313.337V41.1699H307.448ZM307.448 35.3105V29.4219H313.337V35.3105H307.448ZM307.448 23.5625V17.6738H313.337V23.5625H307.448ZM307.448 17.6738V11.7852H313.337V17.6738H307.448ZM307.448 11.7852V6.04297H313.337V11.7852H307.448ZM301.706 6.04297V0.154297H307.448V6.04297H301.706ZM307.448 52.8008V58.6016H301.706V52.8008H307.448ZM301.706 52.8008V47.0586H307.448V52.8008H301.706ZM301.706 47.0586V41.1699H307.448V47.0586H301.706ZM301.706 41.1699V35.3105H307.448V41.1699H301.706ZM301.706 35.3105V29.4219H307.448V35.3105H301.706ZM301.706 23.5625V17.6738H307.448V23.5625H301.706ZM301.706 17.6738V11.7852H307.448V17.6738H301.706ZM301.706 11.7852V6.04297H307.448V11.7852H301.706ZM295.818 6.04297V0.154297H301.706V6.04297H295.818ZM301.706 52.8008V58.6016H295.818V52.8008H301.706ZM295.818 52.8008V47.0586H301.706V52.8008H295.818ZM289.958 6.04297V0.154297H295.818V6.04297H289.958ZM295.818 52.8008V58.6016H289.958V52.8008H295.818ZM289.958 52.8008V47.0586H295.818V52.8008H289.958ZM284.07 6.04297V0.154297H289.958V6.04297H284.07ZM284.07 52.8008V47.0586H289.958V52.8008H284.07ZM284.07 47.0586V41.1699H289.958V47.0586H284.07ZM284.07 41.1699V35.3105H289.958V41.1699H284.07ZM284.07 35.3105V29.4219H289.958V35.3105H284.07ZM284.07 29.4219V23.5625H289.958V29.4219H284.07ZM284.07 23.5625V17.6738H289.958V23.5625H284.07ZM284.07 17.6738V11.7852H289.958V17.6738H284.07ZM284.07 11.7852V6.04297H289.958V11.7852H284.07ZM395.398 52.8008V58.6016H389.626V52.8008H395.398ZM389.626 52.8008V47.0586H395.398V52.8008H389.626ZM389.626 47.0586V41.1699H395.398V47.0586H389.626ZM389.626 23.5625V17.6738H395.398V23.5625H389.626ZM389.626 17.6738V11.7852H395.398V17.6738H389.626ZM389.626 11.7852V6.04297H395.398V11.7852H389.626ZM383.767 6.04297V0.154297H389.626V6.04297H383.767ZM389.626 52.8008V58.6016H383.767V52.8008H389.626ZM383.767 52.8008V47.0586H389.626V52.8008H383.767ZM383.767 47.0586V41.1699H389.626V47.0586H383.767ZM383.767 41.1699V35.3105H389.626V41.1699H383.767ZM383.767 35.3105V29.4219H389.626V35.3105H383.767ZM383.767 29.4219V23.5625H389.626V29.4219H383.767ZM383.767 23.5625V17.6738H389.626V23.5625H383.767ZM383.767 17.6738V11.7852H389.626V17.6738H383.767ZM383.767 11.7852V6.04297H389.626V11.7852H383.767ZM377.878 6.04297V0.154297H383.767V6.04297H377.878ZM383.767 52.8008V58.6016H377.878V52.8008H383.767ZM377.878 52.8008V47.0586H383.767V52.8008H377.878ZM377.878 41.1699V35.3105H383.767V41.1699H377.878ZM377.878 35.3105V29.4219H383.767V35.3105H377.878ZM377.878 29.4219V23.5625H383.767V29.4219H377.878ZM377.878 23.5625V17.6738H383.767V23.5625H377.878ZM377.878 17.6738V11.7852H383.767V17.6738H377.878ZM372.019 6.04297V0.154297H377.878V6.04297H372.019ZM377.878 52.8008V58.6016H372.019V52.8008H377.878ZM372.019 52.8008V47.0586H377.878V52.8008H372.019ZM372.019 41.1699V35.3105H377.878V41.1699H372.019ZM372.019 35.3105V29.4219H377.878V35.3105H372.019ZM372.019 23.5625V17.6738H377.878V23.5625H372.019ZM372.019 17.6738V11.7852H377.878V17.6738H372.019ZM366.13 6.04297V0.154297H372.019V6.04297H366.13ZM372.019 52.8008V58.6016H366.13V52.8008H372.019ZM366.13 52.8008V47.0586H372.019V52.8008H366.13ZM366.13 41.1699V35.3105H372.019V41.1699H366.13ZM366.13 35.3105V29.4219H372.019V35.3105H366.13ZM366.13 23.5625V17.6738H372.019V23.5625H366.13ZM366.13 17.6738V11.7852H372.019V17.6738H366.13ZM360.241 6.04297V0.154297H366.13V6.04297H360.241ZM366.13 52.8008V58.6016H360.241V52.8008H366.13ZM360.241 52.8008V47.0586H366.13V52.8008H360.241ZM360.241 41.1699V35.3105H366.13V41.1699H360.241ZM360.241 35.3105V29.4219H366.13V35.3105H360.241ZM360.241 23.5625V17.6738H366.13V23.5625H360.241ZM360.241 17.6738V11.7852H366.13V17.6738H360.241ZM354.499 6.04297V0.154297H360.241V6.04297H354.499ZM360.241 52.8008V58.6016H354.499V52.8008H360.241ZM354.499 52.8008V47.0586H360.241V52.8008H354.499ZM354.499 41.1699V35.3105H360.241V41.1699H354.499ZM354.499 35.3105V29.4219H360.241V35.3105H354.499ZM354.499 23.5625V17.6738H360.241V23.5625H354.499ZM354.499 17.6738V11.7852H360.241V17.6738H354.499ZM348.611 6.04297V0.154297H354.499V6.04297H348.611ZM354.499 52.8008V58.6016H348.611V52.8008H354.499ZM348.611 52.8008V47.0586H354.499V52.8008H348.611ZM342.751 6.04297V0.154297H348.611V6.04297H342.751ZM348.611 52.8008V58.6016H342.751V52.8008H348.611ZM342.751 52.8008V47.0586H348.611V52.8008H342.751ZM336.863 6.04297V0.154297H342.751V6.04297H336.863ZM336.863 52.8008V47.0586H342.751V52.8008H336.863ZM336.863 47.0586V41.1699H342.751V47.0586H336.863ZM336.863 41.1699V35.3105H342.751V41.1699H336.863ZM336.863 35.3105V29.4219H342.751V35.3105H336.863ZM336.863 29.4219V23.5625H342.751V29.4219H336.863ZM336.863 23.5625V17.6738H342.751V23.5625H336.863ZM336.863 17.6738V11.7852H342.751V17.6738H336.863ZM336.863 11.7852V6.04297H342.751V11.7852H336.863ZM448.191 52.8008V58.6016H442.419V52.8008H448.191ZM442.419 52.8008V47.0586H448.191V52.8008H442.419ZM442.419 47.0586V41.1699H448.191V47.0586H442.419ZM442.419 41.1699V35.3105H448.191V41.1699H442.419ZM442.419 35.3105V29.4219H448.191V35.3105H442.419ZM442.419 29.4219V23.5625H448.191V29.4219H442.419ZM442.419 23.5625V17.6738H448.191V23.5625H442.419ZM442.419 17.6738V11.7852H448.191V17.6738H442.419ZM442.419 52.8008V58.6016H436.56V52.8008H442.419ZM436.56 52.8008V47.0586H442.419V52.8008H436.56ZM436.56 47.0586V41.1699H442.419V47.0586H436.56ZM436.56 41.1699V35.3105H442.419V41.1699H436.56ZM436.56 35.3105V29.4219H442.419V35.3105H436.56ZM436.56 29.4219V23.5625H442.419V29.4219H436.56ZM436.56 23.5625V17.6738H442.419V23.5625H436.56ZM436.56 17.6738V11.7852H442.419V17.6738H436.56ZM436.56 11.7852V6.04297H442.419V11.7852H436.56ZM430.671 6.04297V0.154297H436.56V6.04297H430.671ZM436.56 52.8008V58.6016H430.671V52.8008H436.56ZM430.671 52.8008V47.0586H436.56V52.8008H430.671ZM430.671 29.4219V23.5625H436.56V29.4219H430.671ZM430.671 11.7852V6.04297H436.56V11.7852H430.671ZM424.812 6.04297V0.154297H430.671V6.04297H424.812ZM430.671 52.8008V58.6016H424.812V52.8008H430.671ZM424.812 52.8008V47.0586H430.671V52.8008H424.812ZM418.923 6.04297V0.154297H424.812V6.04297H418.923ZM418.923 52.8008V47.0586H424.812V52.8008H418.923ZM418.923 47.0586V41.1699H424.812V47.0586H418.923ZM418.923 41.1699V35.3105H424.812V41.1699H418.923ZM418.923 35.3105V29.4219H424.812V35.3105H418.923ZM418.923 23.5625V17.6738H424.812V23.5625H418.923ZM418.923 17.6738V11.7852H424.812V17.6738H418.923ZM413.034 6.04297V0.154297H418.923V6.04297H413.034ZM418.923 52.8008V58.6016H413.034V52.8008H418.923ZM413.034 52.8008V47.0586H418.923V52.8008H413.034ZM413.034 47.0586V41.1699H418.923V47.0586H413.034ZM413.034 41.1699V35.3105H418.923V41.1699H413.034ZM413.034 35.3105V29.4219H418.923V35.3105H413.034ZM413.034 23.5625V17.6738H418.923V23.5625H413.034ZM413.034 17.6738V11.7852H418.923V17.6738H413.034ZM407.292 6.04297V0.154297H413.034V6.04297H407.292ZM413.034 52.8008V58.6016H407.292V52.8008H413.034ZM407.292 52.8008V47.0586H413.034V52.8008H407.292ZM407.292 47.0586V41.1699H413.034V47.0586H407.292ZM407.292 41.1699V35.3105H413.034V41.1699H407.292ZM407.292 35.3105V29.4219H413.034V35.3105H407.292ZM407.292 23.5625V17.6738H413.034V23.5625H407.292ZM407.292 17.6738V11.7852H413.034V17.6738H407.292ZM401.404 6.04297V0.154297H407.292V6.04297H401.404ZM407.292 52.8008V58.6016H401.404V52.8008H407.292ZM401.404 52.8008V47.0586H407.292V52.8008H401.404ZM395.544 6.04297V0.154297H401.404V6.04297H395.544ZM401.404 52.8008V58.6016H395.544V52.8008H401.404ZM395.544 52.8008V47.0586H401.404V52.8008H395.544ZM389.655 6.04297V0.154297H395.544V6.04297H389.655ZM389.655 52.8008V47.0586H395.544V52.8008H389.655ZM389.655 47.0586V41.1699H395.544V47.0586H389.655ZM389.655 41.1699V35.3105H395.544V41.1699H389.655ZM389.655 35.3105V29.4219H395.544V35.3105H389.655ZM389.655 29.4219V23.5625H395.544V29.4219H389.655ZM389.655 23.5625V17.6738H395.544V23.5625H389.655ZM389.655 17.6738V11.7852H395.544V17.6738H389.655ZM389.655 11.7852V6.04297H395.544V11.7852H389.655ZM495.212 52.8008V47.0586H500.984V52.8008H495.212ZM495.212 47.0586V41.1699H500.984V47.0586H495.212ZM495.212 41.1699V35.3105H500.984V41.1699H495.212ZM495.212 35.3105V29.4219H500.984V35.3105H495.212ZM495.212 29.4219V23.5625H500.984V29.4219H495.212ZM495.212 23.5625V17.6738H500.984V23.5625H495.212ZM495.212 17.6738V11.7852H500.984V17.6738H495.212ZM495.212 52.8008V58.6016H489.353V52.8008H495.212ZM489.353 52.8008V47.0586H495.212V52.8008H489.353ZM489.353 47.0586V41.1699H495.212V47.0586H489.353ZM489.353 41.1699V35.3105H495.212V41.1699H489.353ZM489.353 35.3105V29.4219H495.212V35.3105H489.353ZM489.353 29.4219V23.5625H495.212V29.4219H489.353ZM489.353 23.5625V17.6738H495.212V23.5625H489.353ZM489.353 17.6738V11.7852H495.212V17.6738H489.353ZM489.353 11.7852V6.04297H495.212V11.7852H489.353ZM483.464 6.04297V0.154297H489.353V6.04297H483.464ZM489.353 52.8008V58.6016H483.464V52.8008H489.353ZM483.464 52.8008V47.0586H489.353V52.8008H483.464ZM483.464 47.0586V41.1699H489.353V47.0586H483.464ZM483.464 11.7852V6.04297H489.353V11.7852H483.464ZM477.605 6.04297V0.154297H483.464V6.04297H477.605ZM483.464 52.8008V58.6016H477.605V52.8008H483.464ZM477.605 52.8008V47.0586H483.464V52.8008H477.605ZM471.716 6.04297V0.154297H477.605V6.04297H471.716ZM477.605 52.8008V58.6016H471.716V52.8008H477.605ZM471.716 52.8008V47.0586H477.605V52.8008H471.716ZM471.716 41.1699V35.3105H477.605V41.1699H471.716ZM471.716 35.3105V29.4219H477.605V35.3105H471.716ZM471.716 29.4219V23.5625H477.605V29.4219H471.716ZM471.716 23.5625V17.6738H477.605V23.5625H471.716ZM471.716 17.6738V11.7852H477.605V17.6738H471.716ZM465.827 6.04297V0.154297H471.716V6.04297H465.827ZM471.716 52.8008V58.6016H465.827V52.8008H471.716ZM465.827 52.8008V47.0586H471.716V52.8008H465.827ZM465.827 41.1699V35.3105H471.716V41.1699H465.827ZM465.827 35.3105V29.4219H471.716V35.3105H465.827ZM465.827 29.4219V23.5625H471.716V29.4219H465.827ZM465.827 23.5625V17.6738H471.716V23.5625H465.827ZM465.827 17.6738V11.7852H471.716V17.6738H465.827ZM460.085 6.04297V0.154297H465.827V6.04297H460.085ZM465.827 52.8008V58.6016H460.085V52.8008H465.827ZM460.085 52.8008V47.0586H465.827V52.8008H460.085ZM460.085 41.1699V35.3105H465.827V41.1699H460.085ZM460.085 35.3105V29.4219H465.827V35.3105H460.085ZM460.085 29.4219V23.5625H465.827V29.4219H460.085ZM460.085 23.5625V17.6738H465.827V23.5625H460.085ZM460.085 17.6738V11.7852H465.827V17.6738H460.085ZM454.197 6.04297V0.154297H460.085V6.04297H454.197ZM460.085 52.8008V58.6016H454.197V52.8008H460.085ZM454.197 52.8008V47.0586H460.085V52.8008H454.197ZM448.337 6.04297V0.154297H454.197V6.04297H448.337ZM448.337 52.8008V47.0586H454.197V52.8008H448.337ZM448.337 47.0586V41.1699H454.197V47.0586H448.337ZM448.337 11.7852V6.04297H454.197V11.7852H448.337ZM442.448 47.0586V41.1699H448.337V47.0586H442.448ZM442.448 41.1699V35.3105H448.337V41.1699H442.448ZM442.448 35.3105V29.4219H448.337V35.3105H442.448ZM442.448 29.4219V23.5625H448.337V29.4219H442.448ZM442.448 23.5625V17.6738H448.337V23.5625H442.448ZM442.448 17.6738V11.7852H448.337V17.6738H442.448ZM442.448 11.7852V6.04297H448.337V11.7852H442.448ZM553.777 52.8008V58.6016H548.005V52.8008H553.777ZM548.005 52.8008V47.0586H553.777V52.8008H548.005ZM548.005 47.0586V41.1699H553.777V47.0586H548.005ZM548.005 41.1699V35.3105H553.777V41.1699H548.005ZM548.005 35.3105V29.4219H553.777V35.3105H548.005ZM548.005 29.4219V23.5625H553.777V29.4219H548.005ZM548.005 23.5625V17.6738H553.777V23.5625H548.005ZM548.005 17.6738V11.7852H553.777V17.6738H548.005ZM548.005 11.7852V6.04297H553.777V11.7852H548.005ZM542.146 6.04297V0.154297H548.005V6.04297H542.146ZM548.005 52.8008V58.6016H542.146V52.8008H548.005ZM542.146 52.8008V47.0586H548.005V52.8008H542.146ZM542.146 47.0586V41.1699H548.005V47.0586H542.146ZM542.146 41.1699V35.3105H548.005V41.1699H542.146ZM542.146 35.3105V29.4219H548.005V35.3105H542.146ZM542.146 29.4219V23.5625H548.005V29.4219H542.146ZM542.146 23.5625V17.6738H548.005V23.5625H542.146ZM542.146 17.6738V11.7852H548.005V17.6738H542.146ZM542.146 11.7852V6.04297H548.005V11.7852H542.146ZM536.257 6.04297V0.154297H542.146V6.04297H536.257ZM542.146 52.8008V58.6016H536.257V52.8008H542.146ZM536.257 52.8008V47.0586H542.146V52.8008H536.257ZM530.398 6.04297V0.154297H536.257V6.04297H530.398ZM536.257 52.8008V58.6016H530.398V52.8008H536.257ZM530.398 52.8008V47.0586H536.257V52.8008H530.398ZM524.509 6.04297V0.154297H530.398V6.04297H524.509ZM524.509 52.8008V47.0586H530.398V52.8008H524.509ZM524.509 47.0586V41.1699H530.398V47.0586H524.509ZM524.509 41.1699V35.3105H530.398V41.1699H524.509ZM524.509 23.5625V17.6738H530.398V23.5625H524.509ZM524.509 17.6738V11.7852H530.398V17.6738H524.509ZM524.509 11.7852V6.04297H530.398V11.7852H524.509ZM524.509 52.8008V58.6016H518.62V52.8008H524.509ZM518.62 52.8008V47.0586H524.509V52.8008H518.62ZM518.62 47.0586V41.1699H524.509V47.0586H518.62ZM518.62 41.1699V35.3105H524.509V41.1699H518.62ZM518.62 35.3105V29.4219H524.509V35.3105H518.62ZM518.62 17.6738V11.7852H524.509V17.6738H518.62ZM518.62 11.7852V6.04297H524.509V11.7852H518.62ZM512.878 6.04297V0.154297H518.62V6.04297H512.878ZM518.62 52.8008V58.6016H512.878V52.8008H518.62ZM512.878 52.8008V47.0586H518.62V52.8008H512.878ZM512.878 47.0586V41.1699H518.62V47.0586H512.878ZM512.878 41.1699V35.3105H518.62V41.1699H512.878ZM512.878 35.3105V29.4219H518.62V35.3105H512.878ZM512.878 29.4219V23.5625H518.62V29.4219H512.878ZM512.878 11.7852V6.04297H518.62V11.7852H512.878ZM506.99 6.04297V0.154297H512.878V6.04297H506.99ZM512.878 52.8008V58.6016H506.99V52.8008H512.878ZM506.99 52.8008V47.0586H512.878V52.8008H506.99ZM501.13 6.04297V0.154297H506.99V6.04297H501.13ZM506.99 52.8008V58.6016H501.13V52.8008H506.99ZM501.13 52.8008V47.0586H506.99V52.8008H501.13ZM495.241 6.04297V0.154297H501.13V6.04297H495.241ZM495.241 52.8008V47.0586H501.13V52.8008H495.241ZM495.241 47.0586V41.1699H501.13V47.0586H495.241ZM495.241 41.1699V35.3105H501.13V41.1699H495.241ZM495.241 35.3105V29.4219H501.13V35.3105H495.241ZM495.241 29.4219V23.5625H501.13V29.4219H495.241ZM495.241 23.5625V17.6738H501.13V23.5625H495.241ZM495.241 17.6738V11.7852H501.13V17.6738H495.241ZM495.241 11.7852V6.04297H501.13V11.7852H495.241Z" fill="white"/>
</svg>
